<svg width="532" height="550" viewBox="0 0 532 550" fill="none" xmlns="http://www.w3.org/2000/svg">
<rect x="1.03711" y="0.670654" width="530.629" height="548.933" rx="10" fill="url(#paint0_linear_257_14438)"/>
<path opacity="0.2" d="M258.132 87.9379L258.132 88.0203L321.217 120.58L352.7 185.555L352.7 185.647L415.756 218.197L447.225 283.171L447.225 283.264L510.354 315.896L531.516 359.614L531.516 358.305L510.755 315.545L510.755 315.463L447.714 282.903L416.231 217.928L416.231 217.846L353.16 185.245L321.677 120.27L321.677 120.178L258.591 87.5769L227.108 22.6022L227.108 22.5094L185.585 1.08837L184.31 1.08837L226.648 22.9116L258.132 87.9379ZM250.242 96.0752L250.242 96.1577L313.283 128.717L344.766 193.692L344.766 193.785L407.807 226.334L439.291 291.36L439.291 291.443L502.332 323.992L531.383 383.985L531.383 382.675L502.791 323.651L502.791 323.559L439.736 291.009L408.267 226.035L408.267 225.952L345.211 193.393L313.743 128.418L313.743 128.336L250.702 95.7761L219.219 30.8014L219.219 30.7085L161.976 1.15026L160.671 1.15026L218.803 31.0593L250.242 96.0752ZM92.7514 63.6085L155.718 96.1577L187.201 161.184L187.201 161.266L250.287 193.805L281.77 258.78L281.77 258.873L344.855 291.484L376.339 356.459L376.339 356.541L439.424 389.142L470.908 454.168L470.908 454.251L531.516 485.531L531.516 484.871L471.367 453.817L439.884 388.791L439.884 388.709L376.843 356.159L345.36 291.185L345.36 291.102L282.319 258.543L250.835 193.568L250.835 193.475L187.661 160.802L156.193 95.8276L156.193 95.7451L93.137 63.1959L63.0921 1.05743L62.3951 1.05743L92.6328 63.5157L92.7514 63.6085ZM100.626 55.4712L163.607 88.0203L195.076 153.047L195.076 153.129L258.117 185.689L289.6 250.663L289.6 250.756L352.641 283.305L384.124 348.28L384.124 348.373L447.165 380.922L478.782 446.031L478.782 446.113L531.516 473.299L531.516 472.639L479.242 445.659L447.773 380.633L447.773 380.551L384.718 348.001L353.249 282.975L353.249 282.893L290.208 250.333L258.725 185.359L258.725 185.266L195.684 152.717L164.201 87.6903L164.201 87.6078L101.16 55.0483L75.03 1.07806L74.2143 1.07806L100.507 55.3783L100.626 55.4712ZM329.166 14.7743L392.132 47.3545L423.616 112.329L423.616 112.422L486.657 144.971L518.14 209.946L518.14 210.039L531.487 216.897L531.487 216.237L518.614 209.605L487.22 144.641L487.22 144.559L424.179 111.999L392.696 47.0244L392.696 46.9316L329.522 14.3514L323.086 1.06773L322.448 1.06773L329.047 14.7021L329.166 14.7743ZM337.055 6.63701L400.022 39.1965L431.505 104.171L431.505 104.254L494.635 136.854L526.103 201.829L526.103 201.922L531.516 204.707L531.516 204.119L526.534 201.54L495.05 136.566L495.05 136.483L432.009 103.924L400.526 38.949L400.526 38.8562L337.441 6.20378L334.949 1.0471L334.312 1.0471L336.981 6.54417L337.055 6.63701ZM273.955 71.6633L273.955 71.7457L337.011 104.295L368.479 169.321L368.479 169.404L431.52 201.963L463.003 266.938L463.003 267.031L526.103 299.621L531.516 310.78L531.516 309.47L526.578 299.271L526.578 299.188L463.493 266.628L432.009 201.654L432.009 201.561L368.968 169.012L337.485 104.037L337.485 103.944L274.444 71.3951L242.961 6.36882L242.961 6.28631L232.995 1.12963L231.735 1.12963L242.546 6.70922L273.955 71.6633ZM266.08 79.8005L266.08 79.8831L329.121 112.443L360.605 177.417L360.605 177.5L423.66 210.101L455.144 275.075L455.144 275.168L518.184 307.717L531.531 335.161L531.531 333.841L518.703 307.367L518.703 307.284L455.663 274.725L424.179 209.75L424.179 209.667L361.124 177.108L329.655 112.133L329.655 112.04L266.599 79.4911L235.131 14.4649L235.131 14.3824L209.401 1.09868L208.141 1.09868L234.701 14.8155L266.08 79.8005ZM132.08 22.9116L195.076 55.4712L226.559 120.446L226.559 120.539L289.689 153.129L321.128 218.155L321.128 218.238L384.169 250.797L415.652 315.772L415.652 315.855L478.693 348.414L510.176 413.389L510.176 413.482L531.338 424.403L531.338 423.795L510.577 413.079L479.093 348.105L479.093 348.022L416.201 315.504L384.718 250.529L384.718 250.436L321.677 217.887L290.193 152.913L290.193 152.83L227.138 120.27L195.669 55.2958L195.669 55.203L132.495 22.4784L122.114 1.05743L121.476 1.05743L132.02 22.8291L132.08 22.9116ZM147.844 6.63702L210.884 39.1966L242.368 104.171L242.368 104.254L305.409 136.813L336.892 201.788L336.892 201.881L400.022 234.512L431.505 299.487L431.505 299.57L494.635 332.181L526.103 397.155L526.103 397.238L531.516 400.074L531.516 399.414L526.534 396.846L495.05 331.871L495.05 331.778L432.009 299.229L400.526 234.203L400.526 234.121L337.441 201.52L305.957 136.545L305.957 136.463L242.916 103.903L211.433 38.9284L211.433 38.8356L148.259 6.20379L145.767 1.04711L145.145 1.04711L147.799 6.54418L147.844 6.63702ZM139.954 14.7743L203.01 47.3545L234.478 112.329L234.478 112.422L297.519 144.971L329.003 209.946L329.003 210.039L392.043 242.588L423.527 307.563L423.527 307.645L486.568 340.205L518.051 405.179L518.051 405.272L531.398 412.13L531.398 411.47L518.526 404.829L487.057 339.854L487.057 339.761L424.016 307.212L392.533 242.237L392.533 242.144L329.492 209.595L298.009 144.569L298.009 144.486L234.968 111.927L203.484 46.9522L203.484 46.8594L140.384 14.3514L133.948 1.06774L133.31 1.06774L139.925 14.7021L139.954 14.7743ZM108.441 47.3545L171.482 79.8831L202.965 144.858L202.965 144.94L266.006 177.5L297.49 242.474L297.49 242.557L360.545 275.116L392.029 340.091L392.029 340.184L455.188 372.867L486.657 437.842L486.657 437.924L531.516 461.109L531.516 460.459L487.131 437.543L455.648 372.517L455.648 372.434L392.607 339.875L361.124 274.9L361.124 274.807L298.083 242.258L266.599 177.283L266.599 177.19L203.559 144.641L171.942 79.5324L171.942 79.4499L108.901 46.8904L86.6564 1.05743L86.0187 1.05743L108.397 47.2411L108.441 47.3545ZM84.7137 71.6839L84.7137 71.7664L147.844 104.295L179.327 169.321L179.327 169.404L242.383 201.963L273.851 266.938L273.851 267.031L336.981 299.621L368.449 364.647L368.449 364.73L431.49 397.279L463.018 462.305L463.018 462.388L526.103 494.958L531.516 506.117L531.516 504.807L526.578 494.607L526.578 494.514L463.493 461.955L432.009 396.98L432.009 396.887L368.968 364.338L337.441 299.271L337.441 299.188L274.4 266.628L242.916 201.654L242.916 201.561L179.876 169.012L148.392 104.037L148.392 103.944L85.3514 71.3951L53.7346 6.28631L53.7346 6.20379L43.7839 1.04712L42.5085 1.04712L53.2749 6.63702L84.7137 71.6839ZM116.271 39.2172L179.357 71.7458L210.84 136.72L210.84 136.813L273.881 169.362L305.409 234.43L305.409 234.512L368.494 267.031L399.977 332.005L399.977 332.098L463.018 364.647L494.501 429.622L494.501 429.715L531.427 448.784L531.427 448.124L494.917 429.282L463.493 364.379L463.493 364.297L400.437 331.737L368.968 266.763L368.968 266.67L305.868 234.028L274.4 169.053L274.4 168.971L211.389 136.421L179.905 71.3951L179.905 71.3126L116.864 38.7531L98.6091 1.05743L97.9714 1.05743L116.271 39.1037L116.271 39.2172ZM321.217 22.9116L384.258 55.4711L415.741 120.446L415.741 120.539L478.782 153.088L510.265 218.114L510.265 218.197L531.427 229.129L531.427 228.469L510.666 217.763L479.182 152.789L479.182 152.706L416.142 120.147L384.658 55.172L384.658 55.0792L321.617 22.53L311.237 1.10893L310.599 1.10893L321.128 22.8291L321.217 22.9116ZM45.3855 14.7744L76.8688 79.749L76.8688 79.8315L139.954 112.443L171.438 177.417L171.438 177.5L234.523 210.101L266.006 275.075L266.006 275.168L329.047 307.717L360.53 372.692L360.53 372.774L423.571 405.334L455.055 470.309L455.055 470.401L518.229 503.085L531.576 530.518L531.576 529.209L518.748 502.734L518.748 502.651L455.707 470.092L424.224 405.117L424.224 405.025L361.168 372.475L329.7 307.501L329.7 307.418L266.644 274.859L235.175 209.884L235.175 209.801L172.12 177.242L140.651 112.267L140.651 112.174L77.6103 79.6252L45.86 14.4236L45.86 14.3411L20.0861 1.05743L18.8256 1.05743L45.3855 14.7744ZM124.205 31.0593L187.246 63.6085L218.803 128.624L218.803 128.717L281.859 161.266L313.283 226.293L313.283 226.375L376.339 258.935L407.807 323.909L407.807 323.992L470.908 356.593L502.391 421.567L502.391 421.66L531.516 436.697L531.516 436.037L502.895 421.258L471.412 356.283L471.412 356.201L408.371 323.641L376.888 258.667L376.888 258.574L313.713 225.942L282.23 160.916L282.23 160.833L219.189 128.284L187.661 63.2578L187.661 63.1753L124.62 30.6158L110.31 1.05743L109.672 1.05743L124.161 30.9664L124.205 31.0593ZM486.701 47.3545L531.516 70.4875L531.516 69.8275L487.131 46.911L464.887 1.07804L464.264 1.07804L486.612 47.2616L486.701 47.3545ZM494.59 39.2171L531.516 58.2764L531.516 57.6266L495.006 38.7737L476.75 1.07804L476.127 1.07804L494.546 39.1037L494.59 39.2171ZM470.863 63.6291L531.442 94.8994L531.442 94.2497L471.293 63.1959L441.248 1.05741L440.611 1.05741L470.908 63.5156L470.863 63.6291ZM502.391 31.0799L531.442 46.0756L531.442 45.4155L502.821 30.6364L488.51 1.07804L487.873 1.07804L502.346 30.987L502.391 31.0799ZM462.944 71.6838L462.944 71.7664L525.985 104.316L531.516 115.423L531.516 114.113L526.578 103.924L526.578 103.831L463.493 71.3126L432.009 6.2863L432.009 6.20378L422.044 1.0471L420.783 1.0471L431.579 6.62669L462.944 71.6838ZM526.029 6.65757L531.442 9.45255L531.442 8.79246L526.459 6.2244L523.968 1.06773L523.33 1.06773L525.985 6.5648L526.029 6.65757ZM518.155 14.7949L531.501 21.6534L531.501 21.0036L518.629 14.3617L512.208 1.07804L511.57 1.07804L518.17 14.7124L518.155 14.7949ZM313.328 31.0593L376.383 63.6084L407.852 128.583L407.852 128.676L470.908 161.266L502.421 226.293L502.421 226.375L531.472 241.371L531.472 240.721L502.851 225.942L471.367 160.916L471.367 160.833L408.326 128.284L376.843 63.2578L376.843 63.1753L313.713 30.6158L299.403 1.05742L298.884 1.05742L313.357 30.9664L313.328 31.0593ZM510.354 22.9116L531.516 33.8438L531.516 33.1838L510.755 22.4784L500.374 1.05741L499.736 1.05741L510.28 22.8291L510.354 22.9116ZM455.144 79.8005L455.144 79.8831L518.184 112.443L531.531 139.876L531.531 138.567L518.703 112.092L518.703 111.999L455.663 79.4499L424.179 14.4236L424.179 14.3411L398.45 1.05742L397.174 1.05742L423.749 14.7743L455.144 79.8005ZM289.689 55.4711L352.73 88.0203L384.213 153.047L384.213 153.129L447.254 185.689L478.738 250.663L478.738 250.756L531.427 277.953L531.427 277.344L479.153 250.354L447.684 185.379L447.684 185.286L384.629 152.737L353.16 87.711L353.16 87.6284L290.119 55.0689L263.989 1.09868L263.292 1.09868L289.585 55.4196L289.689 55.4711ZM305.453 39.1966L368.494 71.7457L399.977 136.72L399.977 136.813L463.018 169.362L494.501 234.389L494.501 234.471L531.516 253.623L531.516 252.963L495.006 234.028L463.493 169.053L463.493 168.971L400.437 136.421L368.968 71.3951L368.968 71.3126L305.913 38.7531L287.672 1.05742L287.02 1.05742L305.409 39.1037L305.453 39.1966ZM297.564 47.3545L360.619 79.9037L392.103 144.878L392.103 144.961L455.188 177.541L486.657 242.516L486.657 242.598L531.516 265.793L531.516 265.133L487.131 242.217L455.648 177.242L455.648 177.149L392.607 144.6L361.124 79.5737L361.124 79.4911L298.083 46.9316L275.838 1.09868L275.156 1.09868L297.519 47.2823L297.564 47.3545ZM281.815 63.6291L344.855 96.1577L376.339 161.184L376.339 161.266L439.424 193.805L470.908 258.78L470.908 258.873L531.487 290.143L531.487 289.483L471.338 258.429L439.854 193.455L439.854 193.362L376.799 160.802L345.315 95.8276L345.315 95.7451L282.274 63.1959L252.2 1.07805L251.577 1.07805L281.815 63.5363L281.815 63.6291ZM447.254 87.9378L447.254 88.0203L510.354 120.58L531.516 164.288L531.516 162.978L510.755 120.229L510.755 120.136L447.729 87.5769L416.245 22.6022L416.245 22.5094L374.722 1.08836L373.447 1.08836L415.786 22.9116L447.254 87.9378ZM439.38 96.0751L439.38 96.1577L502.421 128.717L531.516 188.649L531.516 187.339L502.925 128.315L502.925 128.232L439.869 95.6729L408.4 30.6983L408.4 30.6055L351.158 1.0471L349.883 1.0471L407.896 31.0592L439.38 96.0751ZM478.826 55.4711L531.516 82.678L531.516 82.0179L479.242 55.0277L453.112 1.05741L452.474 1.05741L478.782 55.3783L478.826 55.4711ZM227.064 510.789L195.595 445.763L195.595 445.68L132.495 413.121L101.026 348.146L101.026 348.063L37.8817 315.504L6.39834 250.529L6.39834 250.436L0.985517 247.641L0.985517 248.302L5.96828 250.88L37.4516 315.855L37.4516 315.937L100.552 348.455L132.035 413.482L132.035 413.574L195.076 446.113L226.559 511.088L226.559 511.17L289.689 543.771L292.181 548.928L292.818 548.928L290.119 543.348L227.064 510.789ZM305.868 527.063L242.827 494.504L211.344 429.529L211.344 429.447L148.288 396.887L116.82 331.913L116.82 331.82L53.6901 299.188L22.2216 234.162L22.2216 234.079L1.04484 223.147L1.04484 223.807L21.8063 234.512L53.2304 299.539L53.2304 299.621L116.316 332.181L147.799 397.155L147.799 397.238L210.84 429.797L242.323 494.772L242.323 494.865L305.453 527.497L315.834 548.918L316.472 548.918L305.928 527.146L305.868 527.063ZM361.079 470.205L361.079 470.113L297.994 437.543L266.51 372.517L266.51 372.434L203.47 339.875L171.986 274.9L171.986 274.807L108.945 242.258L77.462 177.283L77.462 177.19L14.4063 144.641L1.05966 117.197L1.05966 118.507L13.8873 144.992L13.8873 145.074L76.9133 177.541L108.397 242.516L108.397 242.598L171.482 275.209L202.965 340.184L202.965 340.277L266.006 372.826L297.49 437.801L297.49 437.883L360.619 470.535L392.103 535.51L392.103 535.593L417.832 548.876L419.108 548.876L392.562 535.18L361.079 470.205ZM353.205 478.343L353.205 478.25L290.164 445.701L258.68 380.674L258.68 380.592L195.64 348.043L164.156 283.017L164.156 282.934L101.115 250.375L69.632 185.4L69.632 185.307L6.59112 152.758L1.1783 141.588L1.1783 142.898L6.1314 153.108L6.1314 153.191L69.024 185.689L100.492 250.663L100.492 250.756L163.607 283.347L195.076 348.362L195.076 348.455L258.117 381.005L289.645 446.031L289.645 446.113L352.73 478.673L384.213 543.647L384.213 543.73L394.179 548.887L395.439 548.887L384.629 543.307L353.205 478.343ZM1.00036 532.169L1.00036 533.489L5.95346 543.689L5.95346 543.771L15.919 548.928L17.1943 548.928L6.38353 543.348L1.00036 532.169ZM329.522 502.652L266.466 470.092L234.997 405.117L234.997 405.025L171.897 372.434L140.429 307.459L140.429 307.377L77.3434 274.766L45.86 209.791L45.86 209.709L1.04483 186.565L1.04483 187.225L45.3855 210.101L76.8688 275.075L76.8688 275.168L139.954 307.758L171.438 372.733L171.438 372.816L234.523 405.427L266.006 470.401L266.006 470.494L329.092 503.085L351.336 548.918L351.959 548.918L329.611 502.734L329.522 502.652ZM321.632 510.789L258.591 478.229L227.108 413.255L227.108 413.162L164.067 380.613L132.539 315.504L132.539 315.421L69.454 282.913L37.9707 217.939L37.9707 217.856L1.03001 198.787L1.03001 199.436L37.5109 218.238L69.024 283.254L69.024 283.347L132.08 315.896L163.563 380.922L163.563 381.005L226.604 413.564L258.087 478.539L258.087 478.632L321.217 511.222L339.457 548.918L340.095 548.918L321.677 510.871L321.632 510.789ZM313.713 518.926L250.672 486.367L219.189 421.392L219.189 421.299L156.148 388.729L124.665 323.755L124.665 323.662L61.6091 291.051L30.1258 226.076L30.1258 225.994L1.0745 210.987L1.0745 211.648L29.6364 226.375L61.1049 291.401L61.1049 291.484L124.205 324.033L155.674 389.008L155.674 389.09L218.803 421.732L250.242 486.707L250.242 486.8L313.328 519.359L327.638 548.918L328.276 548.918L313.802 519.009L313.713 518.926ZM495.006 527.063L431.965 494.504L400.482 429.529L400.482 429.447L337.441 396.846L305.957 331.871L305.957 331.778L242.916 299.229L211.389 234.162L211.389 234.079L148.333 201.52L116.864 136.545L116.864 136.463L53.6901 103.862L22.2216 38.8871L22.2216 38.7943L1.04483 27.8724L1.04483 28.5222L21.8063 39.2378L53.2304 104.212L53.2304 104.295L116.316 136.854L147.799 201.829L147.799 201.922L210.84 234.471L242.323 299.446L242.323 299.528L305.364 332.088L336.847 397.063L336.847 397.145L400.022 429.839L431.505 494.813L431.505 494.906L494.635 527.497L505.016 548.918L505.653 548.918L495.11 527.146L495.006 527.063ZM487.131 535.18L424.09 502.631L392.607 437.625L392.607 437.543L329.566 404.983L298.083 340.009L298.083 339.916L235.042 307.367L203.559 242.392L203.559 242.299L140.518 209.75L109.034 144.724L109.034 144.641L45.8155 111.999L14.3322 47.0244L14.3322 46.9316L0.985508 40.0732L0.985508 40.7332L13.8725 47.3545L45.2965 112.329L45.2965 112.422L108.441 144.992L139.925 209.966L139.925 210.059L202.98 242.608L234.449 307.583L234.449 307.666L297.49 340.225L328.973 405.2L328.973 405.293L392.132 437.976L423.616 502.951L423.616 503.043L486.701 535.634L493.152 548.918L493.79 548.918L487.22 535.283L487.131 535.18ZM416.201 510.768L384.718 445.763L384.718 445.68L321.677 413.121L290.193 348.146L290.193 348.063L227.064 315.504L195.595 250.529L195.595 250.436L132.495 217.805L101.026 152.83L101.026 152.747L37.8817 120.136L6.39833 55.1618L6.39833 55.0689L0.985509 52.2843L0.985509 52.9341L5.96827 55.5124L37.4516 120.487L37.4516 120.58L100.552 153.129L132.035 218.155L132.035 218.238L195.076 250.797L226.559 315.772L226.559 315.855L289.689 348.455L321.128 413.482L321.128 413.574L384.258 446.113L415.741 511.088L415.741 511.17L478.827 543.781L481.318 548.938L481.956 548.938L479.242 543.359L416.201 510.768ZM368.968 462.027L368.968 461.934L305.913 429.385L274.444 364.359L274.444 364.276L211.389 331.737L179.905 266.763L179.905 266.67L116.746 234.028L85.3366 169.053L85.3366 168.971L22.2957 136.421L1.00034 92.7336L1.00034 94.0434L21.7619 136.793L21.7619 136.885L84.7879 169.404L116.271 234.43L116.271 234.512L179.357 267.031L210.84 332.005L210.84 332.098L273.881 364.647L305.364 429.622L305.364 429.715L368.494 462.388L399.977 527.363L399.977 527.445L441.5 548.866L442.731 548.866L400.437 527.063L368.968 462.027ZM510.77 510.789L447.729 478.229L416.245 413.255L416.245 413.162L353.205 380.613L321.677 315.504L321.677 315.421L258.636 282.862L227.153 217.887L227.153 217.805L164.023 185.245L132.539 120.271L132.539 120.178L69.454 87.5769L37.9707 22.6022L37.9707 22.5094L1.03 3.43982L1.03 4.03802L37.5109 22.9116L69.024 87.9379L69.024 88.0204L132.08 120.58L163.563 185.555L163.563 185.647L226.604 218.197L258.087 283.171L258.087 283.264L321.143 315.813L352.626 380.839L352.626 380.922L415.682 413.482L447.15 478.456L447.15 478.549L510.354 511.222L528.595 548.918L529.232 548.918L510.814 510.871L510.77 510.789ZM376.843 453.9L376.843 453.817L313.713 421.258L282.23 356.283L282.23 356.201L219.189 323.641L187.706 258.667L187.706 258.574L124.665 226.024L93.1815 160.998L93.1815 160.916L30.1406 128.356L1.08932 68.3629L1.08932 69.6728L29.5919 128.624L29.5919 128.717L92.7514 161.266L124.161 226.293L124.161 226.375L187.246 258.935L218.729 323.909L218.729 323.992L281.785 356.551L313.254 421.526L313.254 421.619L376.383 454.251L407.852 519.225L407.852 519.308L465.094 548.866L466.459 548.866L408.326 518.926L376.843 453.9ZM337.441 494.504L274.355 461.955L242.872 396.98L242.872 396.887L179.831 364.338L148.348 299.312L148.348 299.229L85.3069 266.67L53.8236 201.695L53.8236 201.602L1.00035 174.313L1.00035 174.973L53.2749 201.963L84.7582 266.938L84.7582 267.031L147.844 299.621L179.327 364.647L179.327 364.73L242.383 397.279L273.881 462.305L273.881 462.388L336.981 494.958L363.111 548.928L363.748 548.928L337.441 494.597L337.441 494.504ZM502.895 518.926L439.839 486.367L408.371 421.392L408.371 421.299L345.271 388.729L313.802 323.755L313.802 323.662L250.761 291.113L219.278 226.138L219.278 226.055L156.237 193.496L124.754 128.521L124.754 128.439L61.6091 95.7245L30.1258 30.7498L30.1258 30.657L1.07449 15.6613L1.07449 16.311L29.6364 31.0593L61.1049 96.0339L61.1049 96.1164L124.19 128.717L155.674 193.692L155.674 193.785L218.803 226.375L250.242 291.401L250.242 291.484L313.283 324.033L344.767 389.008L344.767 389.09L407.896 421.732L439.38 486.707L439.38 486.8L502.465 519.359L516.776 548.918L517.413 548.918L502.925 519.009L502.895 518.926ZM297.994 535.18L234.953 502.631L203.47 437.605L203.47 437.522L140.429 404.963L108.945 339.988L108.945 339.895L45.8156 307.325L14.3322 242.351L14.3322 242.258L0.985517 235.399L0.985517 236.049L13.8577 242.691L45.2965 307.676L45.2965 307.758L108.441 340.318L139.925 405.293L139.925 405.385L203.01 437.976L234.478 502.951L234.478 503.043L297.564 535.634L304 548.918L304.637 548.918L298.038 535.283L297.994 535.18ZM124.62 518.926L61.6091 486.367L30.1258 421.392L30.1258 421.299L1.00036 406.262L1.00036 406.922L29.6364 421.732L61.1049 486.707L61.1049 486.8L124.205 519.359L138.516 548.918L139.139 548.918L124.665 519.009L124.62 518.926ZM140.384 502.652L77.3434 470.092L45.8601 405.117L45.8601 405.025L1.04484 381.891L1.04484 382.541L45.3855 405.427L76.8689 470.401L76.8689 470.494L139.954 503.085L162.199 548.918L162.836 548.918L140.429 502.734L140.384 502.652ZM148.259 494.504L85.2179 461.955L53.7346 396.98L53.7346 396.887L1.04484 369.68L1.04484 370.34L53.2749 397.279L84.7582 462.305L84.7582 462.388L147.844 494.958L173.973 548.918L174.611 548.918L148.303 494.597L148.259 494.504ZM132.495 510.789L69.454 478.229L37.9707 413.255L37.9707 413.162L1.03002 394.092L1.03002 394.752L37.511 413.564L69.024 478.58L69.024 478.673L132.08 511.222L150.335 548.918L150.973 548.918L132.539 510.871L132.495 510.789ZM156.222 486.367L93.0925 453.817L61.6091 388.791L61.6091 388.729L1.03001 357.449L1.03001 358.109L61.1494 389.142L92.6328 454.116L92.6328 454.199L155.718 486.81L185.793 548.918L186.43 548.918L156.193 486.459L156.222 486.367ZM1.00036 507.757L1.00036 509.066L13.828 535.551L13.828 535.634L39.5871 548.918L40.8476 548.918L14.2877 535.18L1.00036 507.757ZM1.00036 458.923L1.00036 460.243L29.5919 519.277L29.5919 519.359L86.8195 548.918L88.0949 548.918L30.0516 518.926L1.00036 458.923ZM1.00036 483.345L1.00036 484.644L21.7619 527.404L21.7619 527.486L63.2849 548.907L64.5751 548.907L22.1771 527.063L1.00036 483.345ZM164.127 478.322L164.127 478.229L100.982 445.68L69.4985 380.654L69.4985 380.571L6.45766 348.022L1.04484 336.853L1.04484 338.193L5.99795 348.393L5.99795 348.486L69.024 381.005L100.507 446.031L100.507 446.113L163.607 478.673L195.076 543.689L195.076 543.771L205.042 548.928L206.317 548.928L195.506 543.348L164.127 478.322ZM116.746 527.063L53.6901 494.504L22.2216 429.529L22.2216 429.447L1.04484 418.514L1.04484 419.164L21.8064 429.88L53.2304 494.855L53.2749 494.958L116.316 527.497L126.696 548.918L127.334 548.918L116.805 527.146L116.746 527.063ZM187.661 453.9L187.661 453.817L124.62 421.258L93.137 356.283L93.137 356.201L30.0961 323.641L1.04484 263.648L1.04484 264.958L29.5919 323.951L29.5919 324.033L92.7514 356.593L124.235 421.567L124.235 421.66L187.246 454.251L218.803 519.277L218.803 519.359L276.061 548.918L277.321 548.918L219.233 518.926L187.661 453.9ZM171.942 470.205L171.942 470.113L108.856 437.543L77.3731 372.517L77.3731 372.434L14.3174 339.875L0.970693 312.441L0.970693 313.751L13.828 340.256L13.828 340.349L76.9133 372.867L108.397 437.842L108.397 437.924L171.482 470.535L202.965 535.51L202.965 535.593L228.68 548.876L229.955 548.876L203.425 535.18L171.942 470.205ZM179.831 462.068L179.831 461.975L116.79 429.416L85.3069 364.441L85.3069 364.359L22.2661 331.799L1.08933 288.08L1.08933 289.39L21.8508 332.15L21.8508 332.243L84.7879 364.73L116.271 429.705L116.271 429.797L179.357 462.388L210.84 527.363L210.84 527.445L252.363 548.866L253.638 548.866L211.389 527.063L179.831 462.068ZM108.856 535.18L45.8156 502.652L14.3322 437.625L14.3322 437.543L0.985525 430.684L0.985525 431.334L13.8577 437.976L45.2965 502.992L45.2965 503.085L108.441 535.634L114.862 548.918L115.5 548.918L108.901 535.283L108.856 535.18ZM37.8817 510.789L6.45767 445.763L6.45767 445.68L1.04485 442.885L1.04485 443.545L6.02761 446.113L37.511 511.088L37.511 511.17L100.552 543.771L103.043 548.928L103.681 548.928L100.982 543.348L37.8817 510.789ZM345.271 486.367L282.23 453.817L250.746 388.791L250.746 388.709L187.661 356.159L156.193 291.185L156.193 291.102L93.137 258.543L61.6091 193.475L61.6091 193.382L1.03001 162.112L1.03001 162.762L61.1494 193.805L92.6328 258.78L92.6328 258.873L155.718 291.484L187.201 356.459L187.201 356.541L250.287 389.142L281.77 454.116L281.77 454.199L344.855 486.81L374.93 548.918L375.568 548.918L345.315 486.459L345.271 486.367Z" fill="#C8E3FD"/>
<defs>
<linearGradient id="paint0_linear_257_14438" x1="465.122" y1="500.78" x2="184.882" y2="75.9407" gradientUnits="userSpaceOnUse">
<stop stop-color="#0078C8"/>
<stop offset="1" stop-color="#213B55"/>
</linearGradient>
</defs>
</svg>
