<svg width="24" height="27" viewBox="0 0 24 27" fill="none" xmlns="http://www.w3.org/2000/svg">
<path d="M14 1.93262V2.84668C17.6562 3.45605 20.5 6.65527 20.5 10.4639V12.1904C20.5 14.4756 21.2617 16.71 22.6836 18.5381L23.4453 19.4521C23.75 19.8584 23.8008 20.3662 23.5977 20.7725C23.3945 21.1787 22.9883 21.4326 22.5312 21.4326H2.21875C1.71094 21.4326 1.30469 21.1787 1.10156 20.7725C0.898438 20.3662 0.949219 19.8584 1.25391 19.4521L2.01562 18.5381C3.4375 16.71 4.25 14.4756 4.25 12.1904V10.4639C4.25 6.65527 7.04297 3.45605 10.75 2.84668V1.93262C10.75 1.06934 11.4609 0.307617 12.375 0.307617C13.2383 0.307617 14 1.06934 14 1.93262ZM11.9688 5.18262C9.02344 5.18262 6.6875 7.56934 6.6875 10.4639V12.1904C6.6875 14.6279 5.97656 16.9639 4.65625 18.9951H20.043C18.7227 16.9639 18.0625 14.6279 18.0625 12.1904V10.4639C18.0625 7.56934 15.6758 5.18262 12.7812 5.18262H11.9688ZM15.625 23.0576C15.625 23.9209 15.2695 24.7842 14.6602 25.3936C14.0508 26.0029 13.1875 26.3076 12.375 26.3076C11.5117 26.3076 10.6484 26.0029 10.0391 25.3936C9.42969 24.7842 9.125 23.9209 9.125 23.0576H15.625Z" fill="#213B55"/>
</svg>
