<svg width="78" height="73" viewBox="0 0 78 73" fill="none" xmlns="http://www.w3.org/2000/svg">
<g id="Group">
<g id="g639">
<g id="g641">
<g id="Clip path group">
<g id="g643">
<g id="g653">
<path id="path655" d="M70.6436 45.6722C70.6436 49.7552 67.3325 53.0663 63.2495 53.0663C59.1665 53.0663 55.8555 49.7552 55.8555 45.6722C55.8555 41.5892 59.1665 38.2782 63.2495 38.2782C67.3325 38.2782 70.6436 41.5892 70.6436 45.6722Z" stroke="#0078C8" stroke-width="4" stroke-miterlimit="10" stroke-linecap="round" stroke-linejoin="round"/>
</g>
<g id="g657">
<path id="path659" d="M22.8784 70.8119H2.7666V67.8543C2.7666 61.3209 8.50734 56.0238 15.0407 56.0238C19.035 56.0238 23.01 58.0024 25.1513 61.034" stroke="#0078C8" stroke-width="4" stroke-miterlimit="10" stroke-linecap="round" stroke-linejoin="round"/>
</g>
<g id="g661">
<path id="path663" d="M53.1396 61.0341C55.281 58.0026 59.256 56.0239 63.2503 56.0239C69.7836 56.0239 75.5244 61.321 75.5244 67.8544V70.812H55.4126" stroke="#0078C8" stroke-width="4" stroke-miterlimit="10" stroke-linecap="round" stroke-linejoin="round"/>
</g>
<g id="g665">
<path id="path667" d="M22.4346 45.6722C22.4346 49.7552 19.1235 53.0663 15.0405 53.0663C10.9575 53.0663 7.64648 49.7552 7.64648 45.6722C7.64648 41.5892 10.9575 38.2782 15.0405 38.2782C19.1235 38.2782 22.4346 41.5892 22.4346 45.6722Z" stroke="#0078C8" stroke-width="4" stroke-miterlimit="10" stroke-linecap="round" stroke-linejoin="round"/>
</g>
<g id="g669">
<path id="path671" d="M49.4973 39.757C49.4973 45.4741 44.8627 50.1086 39.1456 50.1086C33.4285 50.1086 28.7939 45.4741 28.7939 39.757C28.7939 34.0399 33.4285 29.4053 39.1456 29.4053C44.8627 29.4053 49.4973 34.0399 49.4973 39.757Z" stroke="#0078C8" stroke-width="4" stroke-miterlimit="10" stroke-linecap="round" stroke-linejoin="round"/>
</g>
<g id="g673">
<path id="path675" d="M39.0924 2.78667L35.8937 9.32744L28.7422 10.3656L33.918 15.4098L32.6965 22.5332L39.0924 19.1704C41.4954 20.4333 43.1548 21.3058 45.4898 22.5332L44.2667 15.4098L49.4426 10.3656L42.291 9.32744L39.0924 2.78667Z" stroke="#0078C8" stroke-width="4" stroke-miterlimit="10" stroke-linecap="round" stroke-linejoin="round"/>
</g>
<g id="g677">
<path id="path679" d="M64.1785 27.7179L68.7317 30.1106L67.8622 25.0412L71.5458 21.4492L66.4544 20.7098L64.1785 16.0959L61.9011 20.7098L56.8096 21.4492L60.4933 25.0412L59.6237 30.1106L64.1785 27.7179Z" stroke="#0078C8" stroke-width="4" stroke-miterlimit="10" stroke-linecap="round" stroke-linejoin="round"/>
</g>
<g id="g681">
<path id="path683" d="M13.8992 27.7179L18.4524 30.1106L17.5829 25.0412L21.2666 21.4492L16.1751 20.7098L13.8992 16.0959L11.6218 20.7098L6.53027 21.4492L10.214 25.0412L9.34445 30.1106L13.8992 27.7179Z" stroke="#0078C8" stroke-width="4" stroke-miterlimit="10" stroke-linecap="round" stroke-linejoin="round"/>
</g>
<g id="g685">
<path id="path687" d="M55.4117 70.812H22.8779V69.3332C22.8779 66.3016 23.7075 63.4638 25.1509 61.0341C27.9872 56.2635 33.1926 53.0663 39.1448 53.0663C43.6374 53.0663 47.7042 54.8867 50.647 57.831C51.6038 58.7878 52.4423 59.8629 53.1388 61.0341C54.5821 63.4638 55.4117 66.3016 55.4117 69.3332V70.812Z" stroke="#0078C8" stroke-width="4" stroke-miterlimit="10" stroke-linecap="round" stroke-linejoin="round"/>
</g>
</g>
</g>
</g>
</g>
</g>
</svg>
