<svg width="25" height="25" viewBox="0 0 25 25" fill="none" xmlns="http://www.w3.org/2000/svg">
<g id="facebook">
<path id="Vector" d="M24.8807 12.5527C24.8807 18.7436 20.3448 23.875 14.4155 24.8052V16.138H17.3055L17.8554 12.5527H14.4155V10.2261C14.4155 9.24496 14.8961 8.28904 16.4368 8.28904H18.0008V5.23668C18.0008 5.23668 16.5812 4.99443 15.2241 4.99443C12.3912 4.99443 10.5395 6.7115 10.5395 9.82006V12.5527H7.39019V16.138H10.5395V24.8052C4.61012 23.875 0.0742188 18.7436 0.0742188 12.5527C0.0742188 5.70277 5.62757 0.149414 12.4775 0.149414C19.3273 0.149414 24.8807 5.70277 24.8807 12.5527Z" fill="#1877F2"/>
<path id="Vector_2" d="M17.3059 16.1379L17.8559 12.5526H14.4159V10.226C14.4159 9.24511 14.8964 8.289 16.4372 8.289H18.0012V5.23664C18.0012 5.23664 16.5818 4.99438 15.2248 4.99438C12.3916 4.99438 10.5399 6.71146 10.5399 9.82002V12.5526H7.39062V16.1379H10.5399V24.8051C11.1714 24.9042 11.8186 24.9558 12.4779 24.9558C13.1372 24.9558 13.7844 24.9042 14.4159 24.8051V16.1379H17.3059Z" fill="white"/>
</g>
</svg>
