<svg width="163" height="55" viewBox="0 0 163 55" fill="none" xmlns="http://www.w3.org/2000/svg">
<g id="Group 9">
<g id="Group">
<path id="Vector" fill-rule="evenodd" clip-rule="evenodd" d="M38.9348 0.889404C42.12 0.889404 45.1546 1.52443 47.9134 2.66496C38.5962 1.70407 29.4002 6.2495 20.3798 16.3388C31.5487 7.92896 42.5798 4.46141 53.477 5.93198C54.731 6.93047 55.8763 8.05012 56.8879 9.27839C47.0189 7.55714 37.2335 12.019 27.6404 22.7434C38.2033 14.8265 48.6199 11.2962 58.8943 12.1402C59.5715 13.289 60.1441 14.5006 60.6039 15.7623C52.0266 15.027 43.1942 19.0502 34.1571 27.882C43.6206 21.7323 52.7037 18.7243 61.4817 18.9165C61.7492 20.2659 61.8872 21.653 61.8872 23.0734C61.8872 35.2934 51.5751 45.2616 38.9348 45.2616C26.2945 45.2616 15.9824 35.2934 15.9824 23.0734C15.9824 10.8534 26.2903 0.889404 38.9348 0.889404Z" fill="#0078C8"/>
<path id="Vector_2" fill-rule="evenodd" clip-rule="evenodd" d="M37.8437 34.9468H38.1112H161.087V33.5807L38.4163 33.6475L25.4249 33.2047C20.1205 32.7953 16.0492 32.2146 13.2778 31.5962C8.59204 30.3972 5.92102 28.9642 5.23968 27.2179C4.5876 25.6805 5.51138 24.1765 8.0779 22.8062L13.4826 20.5502L16.0157 19.6938C16.6302 19.3846 16.4588 19.3512 15.5016 19.5225L11.911 20.3079C10.4062 20.7173 9.17306 21.0933 8.0779 21.5027C6.88242 21.9121 5.61588 22.426 4.38278 23.1112C2.3304 24.2392 1.16836 25.4382 0.892481 26.633C0.482841 28.3417 1.92076 29.9836 5.10174 31.521C7.3255 32.6156 10.2348 33.3676 13.7251 33.8815L23.2011 34.7379C26.5828 34.9092 31.4608 34.9426 37.8437 34.9468Z" fill="#6C6C6C"/>
<path id="Vector_3" d="M161.045 4.80405L156.35 8.46379C154.708 6.44175 153.032 5.43072 151.326 5.43072C150.49 5.43072 149.813 5.62708 149.286 6.01979C148.755 6.41668 148.492 6.85952 148.492 7.3525C148.492 7.84548 148.676 8.31757 149.056 8.75206C149.575 9.34113 151.125 10.5986 153.709 12.5288C156.125 14.3169 157.592 15.4449 158.11 15.9086C159.394 17.0575 160.301 18.1479 160.844 19.1923C161.375 20.2451 161.647 21.3857 161.647 22.6223C161.647 25.0412 160.706 27.0298 158.812 28.6049C156.927 30.1757 154.465 30.9611 151.426 30.9611C149.056 30.9611 146.996 30.4473 145.236 29.4237C143.476 28.3918 141.963 26.7792 140.713 24.5817L146.047 21.7408C147.652 24.3352 149.495 25.6345 151.581 25.6345C152.668 25.6345 153.588 25.3545 154.327 24.7947C155.067 24.2349 155.439 23.5874 155.439 22.8562C155.439 22.192 155.163 21.5235 154.599 20.8551C154.043 20.1908 152.81 19.1673 150.904 17.7928C147.276 15.1817 144.939 13.168 143.882 11.7475C142.824 10.3271 142.293 8.91082 142.293 7.49873C142.293 5.45579 143.175 3.70531 144.927 2.25144C146.686 0.789217 148.856 0.0581055 151.435 0.0581055C153.094 0.0581055 154.678 0.400684 156.175 1.07748C157.671 1.76264 159.293 2.99925 161.045 4.80405ZM124.649 17.3583V24.8992H126.254C128.917 24.8992 130.715 24.6067 131.643 24.0177C132.57 23.4286 133.03 22.5763 133.03 21.4567C133.03 20.195 132.491 19.1882 131.4 18.457C130.313 17.7259 128.507 17.3583 125.983 17.3583H124.649ZM124.649 6.12842V12.3575H126.062C127.638 12.3575 128.808 12.0692 129.573 11.4885C130.338 10.9161 130.715 10.1307 130.715 9.14059C130.715 8.2173 130.351 7.48619 129.628 6.94308C128.9 6.40414 127.797 6.12842 126.317 6.12842H124.649ZM118.35 30.23V0.801749H123.6C126.647 0.801749 128.871 0.973034 130.284 1.31979C132.282 1.79188 133.875 2.65668 135.053 3.92255C136.236 5.19259 136.83 6.68823 136.83 8.40948C136.83 9.52912 136.558 10.5485 136.027 11.4634C135.496 12.3784 134.623 13.239 133.419 14.0369C135.434 14.8767 136.909 15.9211 137.841 17.187C138.774 18.4445 139.238 19.9318 139.238 21.653C139.238 23.3074 138.753 24.8073 137.787 26.1692C136.813 27.527 135.563 28.5464 134.038 29.2148C132.508 29.8916 130.401 30.2258 127.709 30.2258H118.35V30.23ZM100.1 8.62255L95.5942 18.7537H104.585L100.1 8.62255ZM96.9025 0.801749H103.277L116.076 30.23H109.493L106.901 24.1639H93.2701L90.6158 30.23H84.0323L96.9025 0.801749ZM75.6723 12.3199H77.7038C79.3005 12.3199 80.4041 12.2154 81.0311 12.0191C81.6581 11.8144 82.143 11.4843 82.5066 11.0206C82.8619 10.5569 83.0375 9.99703 83.0375 9.33276C83.0375 8.19223 82.5359 7.35668 81.5327 6.83863C80.8054 6.4501 79.4468 6.24958 77.4739 6.24958H75.6765V12.3199H75.6723ZM69.3772 0.801749H76.0987C79.7353 0.801749 82.3519 1.0942 83.9571 1.69162C85.5622 2.28486 86.8371 3.24993 87.7609 4.57428C88.6888 5.89864 89.1486 7.49037 89.1486 9.34948C89.1486 11.4049 88.5383 13.1137 87.3178 14.4714C86.1056 15.8292 84.4545 16.7817 82.3645 17.3123C81.1356 17.6215 78.9076 17.7719 75.6723 17.7719V30.23H69.373V0.801749H69.3772Z" fill="#6C6C6C"/>
<path id="Vector_4" d="M144.471 50.2959L143.711 51.0604C143.401 50.7512 143.121 50.5967 142.87 50.5967C142.732 50.5967 142.624 50.6259 142.548 50.6844C142.469 50.7429 142.431 50.8139 142.431 50.9016C142.431 50.9685 142.457 51.027 142.507 51.0854C142.557 51.1398 142.678 51.215 142.875 51.3152L143.326 51.5408C143.802 51.7748 144.129 52.0129 144.304 52.2552C144.48 52.4975 144.567 52.7816 144.567 53.1075C144.567 53.542 144.409 53.9054 144.087 54.1937C143.765 54.4862 143.334 54.6282 142.799 54.6282C142.085 54.6282 141.512 54.3483 141.085 53.7885L141.846 52.9613C141.993 53.1284 142.16 53.2662 142.356 53.3707C142.548 53.4751 142.724 53.5253 142.875 53.5253C143.038 53.5253 143.167 53.4877 143.267 53.4083C143.368 53.3289 143.418 53.2412 143.418 53.1409C143.418 52.9529 143.238 52.7691 142.879 52.5894L142.465 52.3806C141.671 51.9837 141.274 51.4823 141.274 50.8849C141.274 50.4964 141.424 50.1663 141.721 49.8948C142.018 49.6191 142.402 49.4854 142.866 49.4854C143.184 49.4854 143.485 49.5564 143.765 49.6984C144.041 49.8321 144.279 50.0327 144.471 50.2959ZM139.242 51.4406C139.159 51.1732 139 50.9559 138.761 50.7846C138.519 50.6175 138.243 50.534 137.925 50.534C137.583 50.534 137.282 50.6259 137.023 50.8181C136.859 50.9351 136.709 51.1439 136.571 51.4406H139.242ZM140.467 52.4015H136.517C136.575 52.7524 136.726 53.0281 136.972 53.237C137.219 53.4417 137.537 53.5462 137.917 53.5462C138.377 53.5462 138.77 53.3832 139.1 53.0615L140.132 53.5503C139.877 53.918 139.564 54.1895 139.209 54.365C138.849 54.5405 138.423 54.6282 137.925 54.6282C137.16 54.6282 136.533 54.3859 136.053 53.9013C135.572 53.4167 135.33 52.8109 135.33 52.0839C135.33 51.3361 135.572 50.7178 136.053 50.2248C136.533 49.7318 137.14 49.4854 137.867 49.4854C138.64 49.4854 139.267 49.7318 139.752 50.2248C140.237 50.7178 140.479 51.3654 140.479 52.1759L140.467 52.4015ZM134.443 50.6008L133.419 51.1648C133.227 50.9643 133.039 50.8264 132.851 50.747C132.663 50.6677 132.441 50.6301 132.19 50.6301C131.731 50.6301 131.359 50.7679 131.074 51.0395C130.79 51.3152 130.648 51.662 130.648 52.0923C130.648 52.5101 130.786 52.8485 131.058 53.1117C131.334 53.3749 131.689 53.5044 132.136 53.5044C132.688 53.5044 133.114 53.3164 133.424 52.9404L134.393 53.6046C133.867 54.2898 133.123 54.6282 132.165 54.6282C131.3 54.6282 130.623 54.3734 130.138 53.8637C129.649 53.354 129.407 52.7566 129.407 52.0756C129.407 51.5993 129.524 51.1648 129.762 50.7679C130 50.3711 130.33 50.0535 130.757 49.8279C131.183 49.6023 131.66 49.4854 132.186 49.4854C132.675 49.4854 133.11 49.5815 133.499 49.7778C133.879 49.9658 134.197 50.2415 134.443 50.6008ZM127.291 49.6023H128.52V54.507H127.291V49.6023ZM127.91 47.5886C128.127 47.5886 128.311 47.668 128.466 47.8226C128.621 47.9772 128.7 48.1652 128.7 48.3866C128.7 48.6039 128.625 48.7918 128.47 48.9464C128.316 49.101 128.136 49.1762 127.918 49.1762C127.701 49.1762 127.513 49.0968 127.358 48.9423C127.204 48.7835 127.124 48.5955 127.124 48.3699C127.124 48.1526 127.2 47.973 127.354 47.8184C127.505 47.6639 127.693 47.5886 127.91 47.5886ZM121.724 49.6023H122.982L124.219 52.4975L125.465 49.6023H126.715L124.604 54.507H123.818L121.724 49.6023ZM119.003 49.6023H120.064V50.2248C120.177 49.9825 120.328 49.7987 120.516 49.6692C120.704 49.5439 120.913 49.4812 121.134 49.4812C121.293 49.4812 121.46 49.523 121.632 49.6065L121.251 50.6677C121.109 50.5966 120.988 50.5591 120.896 50.5591C120.708 50.5591 120.549 50.676 120.42 50.91C120.29 51.1439 120.223 51.6035 120.223 52.2845L120.227 52.5226V54.5029H118.998V49.6023H119.003ZM117.059 51.4406C116.979 51.1732 116.816 50.9559 116.578 50.7846C116.336 50.6175 116.06 50.534 115.742 50.534C115.399 50.534 115.098 50.6259 114.839 50.8181C114.676 50.9351 114.526 51.1439 114.388 51.4406H117.059ZM118.284 52.4015H114.333C114.392 52.7524 114.542 53.0281 114.789 53.237C115.036 53.4417 115.353 53.5462 115.734 53.5462C116.194 53.5462 116.587 53.3832 116.917 53.0615L117.949 53.5503C117.694 53.918 117.381 54.1895 117.025 54.365C116.666 54.5405 116.24 54.6282 115.742 54.6282C114.973 54.6282 114.35 54.3859 113.87 53.9013C113.389 53.4167 113.146 52.8109 113.146 52.0839C113.146 51.3361 113.389 50.7178 113.87 50.2248C114.35 49.7318 114.956 49.4854 115.684 49.4854C116.457 49.4854 117.084 49.7318 117.569 50.2248C118.054 50.7178 118.296 51.3654 118.296 52.1759L118.284 52.4015ZM112.189 48.7751L111.253 49.6023C110.923 49.147 110.592 48.9172 110.25 48.9172C110.082 48.9172 109.949 48.9631 109.844 49.0509C109.74 49.1386 109.685 49.2389 109.685 49.3517C109.685 49.4645 109.723 49.5689 109.798 49.6692C109.903 49.8029 110.212 50.087 110.726 50.5215C111.207 50.9267 111.499 51.1774 111.604 51.2818C111.859 51.5408 112.043 51.7873 112.147 52.0213C112.252 52.2594 112.306 52.5142 112.306 52.7942C112.306 53.3373 112.118 53.7885 111.742 54.1436C111.366 54.4987 110.872 54.6742 110.266 54.6742C109.794 54.6742 109.384 54.5572 109.033 54.3274C108.682 54.0935 108.381 53.73 108.13 53.237L109.196 52.5978C109.518 53.1827 109.886 53.4751 110.3 53.4751C110.517 53.4751 110.701 53.4125 110.847 53.2871C110.994 53.1618 111.069 53.0156 111.069 52.8485C111.069 52.6981 111.015 52.5477 110.902 52.3973C110.793 52.2469 110.546 52.0171 110.162 51.7079C109.439 51.1189 108.971 50.6677 108.762 50.346C108.548 50.0243 108.444 49.7068 108.444 49.3893C108.444 48.9297 108.619 48.5328 108.971 48.207C109.322 47.8769 109.756 47.714 110.271 47.714C110.601 47.714 110.918 47.7892 111.215 47.9438C111.516 48.09 111.838 48.3699 112.189 48.7751ZM104.916 50.2959L104.155 51.0604C103.846 50.7512 103.566 50.5967 103.315 50.5967C103.177 50.5967 103.068 50.6259 102.993 50.6844C102.914 50.7429 102.876 50.8139 102.876 50.9016C102.876 50.9685 102.901 51.027 102.951 51.0854C103.002 51.1398 103.123 51.215 103.319 51.3152L103.771 51.5408C104.247 51.7748 104.573 52.0129 104.749 52.2552C104.924 52.4975 105.012 52.7816 105.012 53.1075C105.012 53.542 104.853 53.9054 104.531 54.1937C104.21 54.4862 103.779 54.6282 103.244 54.6282C102.529 54.6282 101.956 54.3483 101.53 53.7885L102.291 52.9613C102.437 53.1284 102.604 53.2662 102.801 53.3707C102.993 53.4751 103.169 53.5253 103.319 53.5253C103.482 53.5253 103.612 53.4877 103.712 53.4083C103.812 53.3289 103.863 53.2412 103.863 53.1409C103.863 52.9529 103.683 52.7691 103.323 52.5894L102.91 52.3806C102.115 51.9837 101.718 51.4823 101.718 50.8849C101.718 50.4964 101.869 50.1663 102.166 49.8948C102.462 49.6191 102.847 49.4854 103.311 49.4854C103.629 49.4854 103.929 49.5564 104.21 49.6984C104.485 49.8321 104.719 50.0327 104.916 50.2959ZM100.849 50.2959L100.088 51.0604C99.7787 50.7512 99.4987 50.5967 99.2479 50.5967C99.1099 50.5967 99.0012 50.6259 98.926 50.6844C98.8466 50.7429 98.809 50.8139 98.809 50.9016C98.809 50.9685 98.834 51.027 98.8842 51.0854C98.9344 51.1398 99.0556 51.215 99.252 51.3152L99.7035 51.5408C100.18 51.7748 100.506 52.0129 100.682 52.2552C100.857 52.4975 100.945 52.7816 100.945 53.1075C100.945 53.542 100.786 53.9054 100.464 54.1937C100.142 54.4862 99.7118 54.6282 99.1768 54.6282C98.462 54.6282 97.8894 54.3483 97.463 53.7885L98.2238 52.9613C98.3701 53.1284 98.5373 53.2662 98.7337 53.3707C98.926 53.4751 99.1016 53.5253 99.252 53.5253C99.4151 53.5253 99.5446 53.4877 99.645 53.4083C99.7453 53.3289 99.7954 53.2412 99.7954 53.1409C99.7954 52.9529 99.6157 52.7691 99.2562 52.5894L98.8424 52.3806C98.0482 51.9837 97.6511 51.4823 97.6511 50.8849C97.6511 50.4964 97.8016 50.1663 98.0984 49.8948C98.3951 49.6191 98.7797 49.4854 99.2437 49.4854C99.5614 49.4854 99.8623 49.5564 100.142 49.6984C100.418 49.8321 100.657 50.0327 100.849 50.2959ZM95.6154 51.4406C95.5318 51.1732 95.373 50.9559 95.1347 50.7846C94.8923 50.6175 94.6164 50.534 94.2987 50.534C93.956 50.534 93.655 50.6259 93.3959 50.8181C93.2328 50.9351 93.0824 51.1439 92.9444 51.4406H95.6154ZM96.8402 52.4015H92.8901C92.9486 52.7524 93.0991 53.0281 93.3457 53.237C93.5923 53.4417 93.9058 53.5462 94.2904 53.5462C94.7502 53.5462 95.1431 53.3832 95.4733 53.0615L96.5058 53.5503C96.2508 53.918 95.9373 54.1895 95.582 54.365C95.2225 54.5405 94.7962 54.6282 94.2987 54.6282C93.5296 54.6282 92.9068 54.3859 92.4261 53.9013C91.9454 53.4167 91.703 52.8109 91.703 52.0839C91.703 51.3361 91.9454 50.7178 92.4261 50.2248C92.9068 49.7318 93.5129 49.4854 94.2402 49.4854C95.0135 49.4854 95.6405 49.7318 96.1254 50.2248C96.6103 50.7178 96.8527 51.3654 96.8527 52.1759L96.8402 52.4015ZM86.3818 49.6023H87.6107V50.1078C87.8908 49.8739 88.1458 49.711 88.3715 49.6191C88.5972 49.5271 88.8313 49.4812 89.0696 49.4812C89.5544 49.4812 89.9724 49.6525 90.311 49.9909C90.5953 50.2791 90.7374 50.7053 90.7374 51.2693V54.507H89.5168V52.3638C89.5168 51.779 89.4917 51.3904 89.4374 51.1983C89.3831 51.0061 89.2911 50.8598 89.1615 50.7596C89.0319 50.6593 88.8689 50.6092 88.6766 50.6092C88.4258 50.6092 88.2127 50.6927 88.0329 50.8599C87.8532 51.027 87.732 51.2567 87.6609 51.5492C87.6233 51.7038 87.6066 52.0338 87.6066 52.5435V54.507H86.3776V49.6023H86.3818ZM84.0368 49.6023H85.2658V54.507H84.0368V49.6023ZM84.6555 47.5886C84.8728 47.5886 85.0568 47.668 85.2114 47.8226C85.3661 47.9772 85.4455 48.1652 85.4455 48.3866C85.4455 48.6039 85.3703 48.7918 85.2156 48.9464C85.0609 49.101 84.8812 49.1762 84.6638 49.1762C84.4465 49.1762 84.2584 49.0968 84.1037 48.9423C83.9491 48.7835 83.8696 48.5955 83.8696 48.3699C83.8696 48.1526 83.9449 47.973 84.0995 47.8184C84.2542 47.6639 84.4381 47.5886 84.6555 47.5886ZM83.1047 50.2959L82.3439 51.0604C82.0346 50.7512 81.7546 50.5967 81.5038 50.5967C81.3658 50.5967 81.2571 50.6259 81.1819 50.6844C81.1025 50.7429 81.0649 50.8139 81.0649 50.9016C81.0649 50.9685 81.0899 51.027 81.1401 51.0854C81.1903 51.1398 81.3115 51.215 81.5079 51.3152L81.9594 51.5408C82.4359 51.7748 82.7619 52.0129 82.9375 52.2552C83.1131 52.4975 83.2008 52.7816 83.2008 53.1075C83.2008 53.542 83.042 53.9054 82.7201 54.1937C82.3983 54.4862 81.9677 54.6282 81.4327 54.6282C80.7179 54.6282 80.1453 54.3483 79.7189 53.7885L80.4797 52.9613C80.626 53.1284 80.7932 53.2662 80.9896 53.3707C81.1819 53.4751 81.3575 53.5253 81.5079 53.5253C81.671 53.5253 81.8005 53.4877 81.9009 53.4083C82.0012 53.3289 82.0513 53.2412 82.0513 53.1409C82.0513 52.9529 81.8716 52.7691 81.5121 52.5894L81.0983 52.3806C80.3041 51.9837 79.907 51.4823 79.907 50.8849C79.907 50.4964 80.0575 50.1663 80.3543 49.8948C80.651 49.6191 81.0356 49.4854 81.4996 49.4854C81.8173 49.4854 82.1182 49.5564 82.3983 49.6984C82.6742 49.8321 82.9082 50.0327 83.1047 50.2959ZM74.5524 49.6023H75.8022V51.9628C75.8022 52.4223 75.8357 52.7399 75.8984 52.9195C75.9611 53.0991 76.0614 53.237 76.2035 53.3373C76.3456 53.4375 76.517 53.4835 76.7218 53.4835C76.9267 53.4835 77.1022 53.4334 77.2443 53.3373C77.3865 53.2412 77.4951 53.095 77.562 52.907C77.6122 52.7649 77.6373 52.4641 77.6373 52.0004V49.6023H78.8662V51.6787C78.8662 52.5351 78.7993 53.12 78.6614 53.4334C78.4983 53.8177 78.2517 54.1143 77.9299 54.3191C77.608 54.5238 77.1984 54.6282 76.7009 54.6282C76.1617 54.6282 75.727 54.5071 75.3926 54.2689C75.0582 54.0266 74.8241 53.6966 74.6904 53.2662C74.5942 52.9696 74.5441 52.4307 74.5441 51.6453V49.6023H74.5524ZM70.5814 51.6077V53.308H70.9033C71.4341 53.308 71.7936 53.2412 71.9775 53.1075C72.1615 52.9738 72.2534 52.7816 72.2534 52.531C72.2534 52.2469 72.1447 52.0213 71.9274 51.8542C71.71 51.6912 71.3505 51.6077 70.8448 51.6077H70.5814ZM70.5814 49.0759V50.4797H70.8615C71.175 50.4797 71.4091 50.4128 71.5637 50.2833C71.7184 50.1538 71.7936 49.9783 71.7936 49.7527C71.7936 49.5438 71.7226 49.3809 71.5763 49.2556C71.43 49.1344 71.2126 49.0718 70.9158 49.0718H70.5814V49.0759ZM69.3232 54.507V47.8727H70.3724C70.9827 47.8727 71.4258 47.9103 71.7058 47.9897C72.1029 48.0942 72.4206 48.2905 72.6589 48.5746C72.893 48.8587 73.0142 49.1971 73.0142 49.5856C73.0142 49.8363 72.9598 50.0661 72.8553 50.275C72.7508 50.4797 72.5753 50.676 72.3328 50.8557C72.7341 51.0437 73.0309 51.2818 73.2148 51.5659C73.4029 51.85 73.4949 52.1842 73.4949 52.5727C73.4949 52.9446 73.3987 53.283 73.2065 53.5921C73.0142 53.8971 72.7634 54.1269 72.4582 54.2773C72.1531 54.4319 71.7309 54.507 71.1959 54.507H69.3232ZM159.469 44.4511C159.235 44.2255 158.905 43.8495 158.483 43.3231C158.035 43.6908 157.81 44.0125 157.81 44.2924C157.81 44.4219 157.872 44.5389 157.994 44.6475C158.119 44.7561 158.269 44.8104 158.458 44.8104C158.725 44.8063 159.064 44.6893 159.469 44.4511ZM158.708 41.7189C159.043 41.4306 159.21 41.1799 159.21 40.9627C159.21 40.8499 159.172 40.758 159.097 40.6828C159.022 40.6118 158.922 40.5742 158.796 40.5742C158.683 40.5742 158.583 40.6159 158.504 40.6953C158.424 40.7789 158.382 40.8708 158.382 40.9794C158.391 41.1966 158.495 41.4431 158.708 41.7189ZM161.108 43.1769L161.864 44.0375L161.522 44.3467L161.183 44.6517L162.249 45.788H160.715L160.276 45.3368C159.578 45.7463 158.93 45.9551 158.328 45.9551C157.818 45.9551 157.408 45.8047 157.091 45.5081C156.777 45.2115 156.618 44.8271 156.618 44.3634C156.618 44.0125 156.706 43.6783 156.886 43.3649C157.061 43.0516 157.371 42.7299 157.801 42.3957C157.375 41.8233 157.162 41.3136 157.162 40.8708C157.162 40.5449 157.304 40.2191 157.584 39.9015C157.868 39.584 158.265 39.4211 158.779 39.4211C159.298 39.4211 159.699 39.5798 159.975 39.8974C160.255 40.2149 160.393 40.5324 160.393 40.8541C160.393 41.1047 160.33 41.347 160.201 41.581C160.071 41.815 159.778 42.1575 159.323 42.6087C159.862 43.2438 160.205 43.6365 160.364 43.7911C160.468 43.72 160.715 43.5153 161.108 43.1769ZM150.474 41.9152C150.085 41.9152 149.763 42.0447 149.508 42.3038C149.253 42.5628 149.128 42.8886 149.128 43.2772C149.128 43.6824 149.257 44.0167 149.517 44.2799C149.776 44.5389 150.102 44.6684 150.495 44.6684C150.879 44.6684 151.193 44.5389 151.444 44.2882C151.69 44.0334 151.816 43.7033 151.816 43.2897C151.816 42.8845 151.69 42.5544 151.439 42.2996C151.193 42.0447 150.871 41.9152 150.474 41.9152ZM151.761 40.8833H152.982V45.082C152.982 45.9092 152.815 46.5191 152.48 46.9077C152.033 47.4341 151.356 47.7015 150.453 47.7015C149.972 47.7015 149.567 47.643 149.236 47.5218C148.906 47.4006 148.63 47.2252 148.405 46.9912C148.179 46.7573 148.012 46.4774 147.903 46.1431H149.266C149.387 46.281 149.542 46.3854 149.734 46.4523C149.922 46.5233 150.148 46.5567 150.407 46.5567C150.741 46.5567 151.005 46.5066 151.209 46.4063C151.414 46.3061 151.552 46.1724 151.636 46.0136C151.719 45.8507 151.761 45.575 151.761 45.1823C151.544 45.3995 151.314 45.5583 151.076 45.6502C150.837 45.7463 150.566 45.7922 150.265 45.7922C149.604 45.7922 149.044 45.5541 148.589 45.082C148.133 44.6057 147.903 44.0083 147.903 43.2814C147.903 42.5043 148.146 41.8776 148.626 41.4055C149.065 40.9794 149.588 40.7663 150.194 40.7663C150.478 40.7663 150.745 40.8207 150.996 40.9209C151.247 41.0254 151.498 41.1967 151.753 41.4306V40.8833H151.761ZM142.574 40.8833H143.802V41.3888C144.083 41.1549 144.338 40.9919 144.563 40.9C144.789 40.8081 145.023 40.7622 145.261 40.7622C145.746 40.7622 146.164 40.9335 146.503 41.2719C146.787 41.5601 146.929 41.9863 146.929 42.5503V45.788H145.709V43.6448C145.709 43.0599 145.683 42.6714 145.629 42.4792C145.575 42.2871 145.483 42.1408 145.353 42.0406C145.224 41.9403 145.061 41.8902 144.868 41.8902C144.618 41.8902 144.404 41.9737 144.225 42.1408C144.045 42.3079 143.924 42.5377 143.853 42.8302C143.815 42.9847 143.798 43.3148 143.798 43.8245V45.788H142.569V40.8833H142.574ZM140.229 40.8833H141.458V45.788H140.229V40.8833ZM140.847 38.8696C141.065 38.8696 141.249 38.949 141.403 39.1036C141.558 39.2582 141.637 39.4462 141.637 39.6676C141.637 39.8848 141.562 40.0728 141.407 40.2274C141.253 40.382 141.073 40.4572 140.856 40.4572C140.638 40.4572 140.45 40.3778 140.295 40.2232C140.141 40.0645 140.061 39.8765 140.061 39.6509C140.061 39.4336 140.137 39.254 140.291 39.0994C140.446 38.9448 140.63 38.8696 140.847 38.8696ZM137.737 39.0702H138.966V40.8791H139.698V41.9403H138.966V45.7838H137.737V41.9403H137.11V40.8791H137.737V39.0702ZM132.04 40.8833H133.269V41.3888C133.549 41.1549 133.804 40.9919 134.03 40.9C134.255 40.8081 134.489 40.7622 134.728 40.7622C135.213 40.7622 135.631 40.9335 135.969 41.2719C136.253 41.5601 136.396 41.9863 136.396 42.5503V45.788H135.175V43.6448C135.175 43.0599 135.15 42.6714 135.096 42.4792C135.041 42.2871 134.949 42.1408 134.82 42.0406C134.69 41.9403 134.527 41.8902 134.335 41.8902C134.084 41.8902 133.871 41.9737 133.691 42.1408C133.511 42.3079 133.39 42.5377 133.319 42.8302C133.281 42.9847 133.265 43.3148 133.265 43.8245V45.788H132.036V40.8833H132.04ZM126.493 40.8833H127.743V43.2438C127.743 43.7033 127.776 44.0208 127.839 44.2005C127.902 44.3801 128.002 44.518 128.144 44.6183C128.286 44.7185 128.458 44.7645 128.663 44.7645C128.867 44.7645 129.043 44.7143 129.185 44.6183C129.327 44.5222 129.436 44.3759 129.503 44.1879C129.553 44.0459 129.578 43.7451 129.578 43.2814V40.8833H130.807V42.9597C130.807 43.8161 130.74 44.401 130.602 44.7143C130.439 45.0987 130.192 45.3953 129.871 45.6C129.549 45.8047 129.139 45.9092 128.642 45.9092C128.102 45.9092 127.668 45.788 127.333 45.5499C126.999 45.3076 126.765 44.9775 126.631 44.5472C126.535 44.2506 126.485 43.7117 126.485 42.9262V40.8833H126.493ZM122.907 41.9152C122.522 41.9152 122.204 42.0489 121.949 42.3121C121.694 42.5795 121.569 42.9179 121.569 43.3315C121.569 43.7576 121.694 44.1002 121.945 44.3634C122.196 44.6266 122.514 44.7603 122.902 44.7603C123.287 44.7603 123.609 44.6266 123.864 44.3592C124.119 44.0919 124.248 43.7493 124.248 43.3315C124.248 42.9095 124.123 42.5711 123.872 42.3079C123.617 42.0489 123.295 41.9152 122.907 41.9152ZM122.886 40.7622C123.35 40.7622 123.784 40.8791 124.194 41.1089C124.604 41.3387 124.921 41.652 125.151 42.0489C125.381 42.4458 125.494 42.8719 125.494 43.3315C125.494 43.7952 125.377 44.2255 125.151 44.6266C124.921 45.0277 124.604 45.341 124.207 45.5708C123.81 45.7964 123.371 45.9092 122.89 45.9092C122.184 45.9092 121.582 45.6585 121.084 45.1614C120.587 44.66 120.336 44.0543 120.336 43.3399C120.336 42.5753 120.616 41.9361 121.18 41.4264C121.678 40.9836 122.242 40.7622 122.886 40.7622ZM119.467 41.8776L118.442 42.4416C118.25 42.2411 118.062 42.1032 117.874 42.0238C117.686 41.9445 117.464 41.9069 117.214 41.9069C116.754 41.9069 116.382 42.0447 116.097 42.3163C115.813 42.592 115.671 42.9388 115.671 43.3691C115.671 43.7869 115.809 44.1253 116.081 44.3885C116.357 44.6517 116.712 44.7812 117.159 44.7812C117.711 44.7812 118.137 44.5932 118.447 44.2172L119.416 44.8815C118.89 45.5666 118.146 45.905 117.188 45.905C116.323 45.905 115.646 45.6502 115.161 45.1405C114.672 44.6308 114.43 44.0334 114.43 43.3524C114.43 42.8761 114.547 42.4416 114.785 42.0447C115.023 41.6479 115.353 41.3303 115.78 41.1047C116.206 40.8791 116.683 40.7622 117.209 40.7622C117.698 40.7622 118.133 40.8583 118.522 41.0546C118.902 41.2468 119.22 41.5225 119.467 41.8776ZM113.548 41.8776L112.524 42.4416C112.331 42.2411 112.143 42.1032 111.955 42.0238C111.767 41.9445 111.545 41.9069 111.295 41.9069C110.835 41.9069 110.463 42.0447 110.179 42.3163C109.894 42.592 109.752 42.9388 109.752 43.3691C109.752 43.7869 109.89 44.1253 110.162 44.3885C110.438 44.6517 110.793 44.7812 111.24 44.7812C111.792 44.7812 112.218 44.5932 112.528 44.2172L113.497 44.8815C112.971 45.5666 112.227 45.905 111.27 45.905C110.404 45.905 109.727 45.6502 109.242 45.1405C108.753 44.6308 108.511 44.0334 108.511 43.3524C108.511 42.8761 108.628 42.4416 108.866 42.0447C109.104 41.6479 109.435 41.3303 109.861 41.1047C110.287 40.8791 110.764 40.7622 111.29 40.7622C111.779 40.7622 112.214 40.8583 112.603 41.0546C112.988 41.2468 113.301 41.5225 113.548 41.8776ZM104.711 40.9167L103.812 43.202H105.606L104.711 40.9167ZM104.076 39.1537H105.346L107.9 45.788H106.588L106.07 44.4219H103.348L102.818 45.788H101.505L104.076 39.1537ZM98.2112 41.8776L97.1871 42.4416C96.9948 42.2411 96.8067 42.1032 96.6186 42.0238C96.4305 41.9445 96.209 41.9069 95.9582 41.9069C95.4984 41.9069 95.1264 42.0447 94.8421 42.3163C94.5579 42.592 94.4158 42.9388 94.4158 43.3691C94.4158 43.7869 94.5537 44.1253 94.8254 44.3885C95.1013 44.6517 95.4566 44.7812 95.9039 44.7812C96.4556 44.7812 96.882 44.5932 97.1913 44.2172L98.1611 44.8815C97.6344 45.5666 96.8903 45.905 95.9331 45.905C95.0679 45.905 94.3907 45.6502 93.9058 45.1405C93.4168 44.6308 93.1743 44.0334 93.1743 43.3524C93.1743 42.8761 93.2914 42.4416 93.5296 42.0447C93.7679 41.6479 94.0981 41.3303 94.5245 41.1047C94.9508 40.8791 95.4273 40.7622 95.954 40.7622C96.4431 40.7622 96.8778 40.8583 97.2665 41.0546C97.6553 41.251 97.9646 41.5225 98.2112 41.8776ZM91.0592 40.8833H92.2882V45.788H91.0592V40.8833ZM91.6779 38.8696C91.8952 38.8696 92.0792 38.949 92.2338 39.1036C92.3885 39.2582 92.4679 39.4462 92.4679 39.6676C92.4679 39.8848 92.3927 40.0728 92.238 40.2274C92.0833 40.382 91.9036 40.4572 91.6862 40.4572C91.4689 40.4572 91.2808 40.3778 91.1261 40.2232C90.9715 40.0645 90.892 39.8765 90.892 39.6509C90.892 39.4336 90.9673 39.254 91.1219 39.0994C91.2766 38.9448 91.4605 38.8696 91.6779 38.8696ZM88.0204 40.8833H88.4551C88.4593 40.2399 88.4676 39.8639 88.4844 39.747C88.5178 39.4754 88.6307 39.2623 88.8229 39.1078C89.0152 38.949 89.2911 38.8738 89.6422 38.8738C89.8972 38.8738 90.1856 38.9323 90.5033 39.0493V39.9851C90.3277 39.935 90.1814 39.9099 90.0686 39.9099C89.9265 39.9099 89.822 39.9391 89.7551 39.9976C89.7091 40.0436 89.684 40.1355 89.684 40.2775L89.6798 40.8875H90.4615V41.9319H89.684V45.7922H88.4551V41.9319H88.0204V40.8833ZM86.2606 40.8833H87.4895V45.788H86.2606V40.8833ZM86.8751 38.8696C87.0924 38.8696 87.2763 38.949 87.431 39.1036C87.5857 39.2582 87.6651 39.4462 87.6651 39.6676C87.6651 39.8848 87.5898 40.0728 87.4352 40.2274C87.2805 40.382 87.1008 40.4572 86.8834 40.4572C86.6661 40.4572 86.478 40.3778 86.3233 40.2232C86.1686 40.0645 86.0892 39.8765 86.0892 39.6509C86.0892 39.4336 86.1645 39.254 86.3191 39.0994C86.4738 38.9448 86.6577 38.8696 86.8751 38.8696ZM85.2783 41.8776L84.2542 42.4416C84.0619 42.2411 83.8738 42.1032 83.6857 42.0238C83.4976 41.9445 83.2761 41.9069 83.0253 41.9069C82.5655 41.9069 82.1935 42.0447 81.9092 42.3163C81.625 42.592 81.4829 42.9388 81.4829 43.3691C81.4829 43.7869 81.6208 44.1253 81.8925 44.3885C82.1684 44.6517 82.5237 44.7812 82.9709 44.7812C83.5227 44.7812 83.9491 44.5932 84.2584 44.2172L85.2281 44.8815C84.7015 45.5666 83.9574 45.905 83.0002 45.905C82.1349 45.905 81.4578 45.6502 80.9729 45.1405C80.4838 44.6308 80.2414 44.0334 80.2414 43.3524C80.2414 42.8761 80.3584 42.4416 80.5967 42.0447C80.835 41.6479 81.1652 41.3303 81.5915 41.1047C82.0179 40.8791 82.4944 40.7622 83.0211 40.7622C83.5102 40.7622 83.9449 40.8583 84.3336 41.0546C84.714 41.2468 85.0317 41.5225 85.2783 41.8776ZM76.7051 41.8902C76.3247 41.8902 76.0071 42.0239 75.7563 42.2954C75.5055 42.5628 75.3759 42.9095 75.3759 43.3273C75.3759 43.7493 75.5055 44.1002 75.7604 44.3718C76.0196 44.6433 76.3331 44.7812 76.7093 44.7812C77.098 44.7812 77.4199 44.6475 77.6707 44.3759C77.9257 44.1086 78.0553 43.7534 78.0553 43.319C78.0553 42.8928 77.9257 42.5461 77.6707 42.2829C77.4199 42.0197 77.098 41.8902 76.7051 41.8902ZM78.0009 40.8833H79.2298V45.788H78.0009V45.2658C77.7585 45.4956 77.5202 45.6585 77.2778 45.7588C77.0353 45.859 76.772 45.9092 76.4919 45.9092C75.8566 45.9092 75.309 45.6627 74.845 45.1739C74.381 44.6851 74.1511 44.0751 74.1511 43.3482C74.1511 42.592 74.3769 41.9737 74.8241 41.4891C75.2714 41.0086 75.8148 40.7663 76.4585 40.7663C76.7553 40.7663 77.0312 40.8206 77.2903 40.9293C77.5495 41.0379 77.7877 41.205 78.0093 41.4223V40.8833H78.0009ZM70.5814 41.7481H70.9869C71.3046 41.7481 71.5261 41.7231 71.6515 41.6813C71.7769 41.6353 71.873 41.5601 71.9441 41.4557C72.0152 41.3512 72.0486 41.2259 72.0486 41.0755C72.0486 40.8207 71.9483 40.6285 71.7476 40.5115C71.6013 40.4238 71.3296 40.3778 70.9367 40.3778H70.5772V41.7481H70.5814ZM69.3232 39.1537H70.665C71.3923 39.1537 71.9148 39.2206 72.2325 39.3543C72.5544 39.4879 72.8052 39.7052 72.9933 40.006C73.1772 40.3026 73.2692 40.6619 73.2692 41.0838C73.2692 41.5476 73.1479 41.9319 72.9055 42.2369C72.6631 42.5419 72.3328 42.7591 71.9148 42.8761C71.6682 42.9471 71.2251 42.9806 70.5814 42.9806V45.788H69.3232V39.1537Z" fill="#6C6C6C"/>
</g>
</g>
</svg>
