<svg width="38" height="38" viewBox="0 0 38 38" fill="none" xmlns="http://www.w3.org/2000/svg">
<g id="&#240;&#159;&#166;&#134; icon &#34;arrow left 2&#34;">
<path id="Vector" d="M18.7368 0.0576172C8.39407 0.0576172 0 8.45169 0 18.7944C0 29.1371 8.39407 37.5312 18.7368 37.5312C29.0795 37.5312 37.4735 29.1371 37.4735 18.7944C37.4735 8.45169 29.0795 0.0576172 18.7368 0.0576172ZM25.2946 20.1996H15.5703L18.793 23.4224C19.3363 23.9657 19.3363 24.8651 18.793 25.4085C18.5119 25.6895 18.1559 25.8207 17.7999 25.8207C17.4439 25.8207 17.0879 25.6895 16.8069 25.4085L11.1859 19.7874C10.6425 19.2441 10.6425 18.3447 11.1859 17.8013L16.8069 12.1803C17.3503 11.6369 18.2496 11.6369 18.793 12.1803C19.3363 12.7237 19.3363 13.623 18.793 14.1664L15.5703 17.3891H25.2946C26.0628 17.3891 26.6999 18.0262 26.6999 18.7944C26.6999 19.5626 26.0628 20.1996 25.2946 20.1996Z" fill="#FFD20D"/>
</g>
</svg>
