<svg width="26" height="25" viewBox="0 0 26 25" fill="none" xmlns="http://www.w3.org/2000/svg">
<g id="linked in">
<g id="10.linkedin">
<path id="background" d="M12.8232 24.9574C19.6733 24.9574 25.2264 19.4042 25.2264 12.5541C25.2264 5.704 19.6733 0.150879 12.8232 0.150879C5.97304 0.150879 0.419922 5.704 0.419922 12.5541C0.419922 19.4042 5.97304 24.9574 12.8232 24.9574Z" fill="#0B69C7"/>
<g id="icon">
<path id="Vector" d="M10.0482 8.04493C10.0485 8.38011 9.9494 8.70786 9.76339 8.98669C9.57737 9.26552 9.31281 9.4829 9.00321 9.61132C8.6936 9.73974 8.35285 9.77342 8.02409 9.70811C7.69533 9.6428 7.39334 9.48143 7.15632 9.24441C6.91931 9.0074 6.75794 8.70541 6.69263 8.37665C6.62732 8.04789 6.661 7.70714 6.78942 7.39753C6.91784 7.08792 7.13522 6.82337 7.41405 6.63735C7.69288 6.45134 8.02063 6.35222 8.35581 6.35254C8.80453 6.35297 9.23474 6.53142 9.55203 6.84871C9.86932 7.166 10.0478 7.59621 10.0482 8.04493Z" fill="white"/>
<path id="Vector_2" d="M9.2465 10.4441H7.46435C7.2327 10.4441 7.04492 10.6319 7.04492 10.8635V18.3365C7.04492 18.5681 7.2327 18.7559 7.46435 18.7559H9.2465C9.47814 18.7559 9.66592 18.5681 9.66592 18.3365V10.8635C9.66592 10.6319 9.47814 10.4441 9.2465 10.4441Z" fill="white"/>
<path id="Vector_3" d="M18.9839 14.7524V18.3706C18.9839 18.4727 18.9433 18.5707 18.8711 18.6429C18.7988 18.7152 18.7009 18.7557 18.5987 18.7557H16.686C16.5838 18.7557 16.4859 18.7152 16.4137 18.6429C16.3414 18.5707 16.3008 18.4727 16.3008 18.3706V14.865C16.3008 14.3412 16.4526 12.5802 14.9332 12.5802C13.7549 12.5802 13.515 13.7912 13.4644 14.3346V18.3787C13.4623 18.4789 13.4212 18.5743 13.3499 18.6447C13.2786 18.7151 13.1827 18.7549 13.0825 18.7557H11.2318C11.1812 18.756 11.131 18.7461 11.0842 18.7269C11.0374 18.7076 10.9948 18.6792 10.959 18.6434C10.9232 18.6076 10.8948 18.5651 10.8756 18.5182C10.8563 18.4714 10.8465 18.4212 10.8467 18.3706V10.8307C10.8465 10.78 10.8563 10.7297 10.8755 10.6828C10.8948 10.6359 10.9231 10.5933 10.9589 10.5573C10.9947 10.5214 11.0372 10.4929 11.0841 10.4734C11.1309 10.4539 11.1811 10.4439 11.2318 10.4439H13.0825C13.1339 10.4431 13.1849 10.4524 13.2326 10.4715C13.2802 10.4905 13.3236 10.5189 13.3603 10.5549C13.3969 10.5909 13.4259 10.6338 13.4458 10.6812C13.4656 10.7285 13.4759 10.7794 13.4758 10.8307V11.4835C13.9132 10.8307 14.5628 10.3215 15.9451 10.3215C19.0018 10.3199 18.9839 13.1808 18.9839 14.7524Z" fill="white"/>
</g>
</g>
</g>
</svg>
