<svg width="637" height="760" viewBox="0 0 637 760" fill="none" xmlns="http://www.w3.org/2000/svg">
<path opacity="0.1" fill-rule="evenodd" clip-rule="evenodd" d="M246.745 0.435524C299.105 0.373497 350.966 10.6949 399.365 30.8105C241.04 14.3435 85.0777 92.3531 -68.5227 264.839C121.268 120.948 308.724 61.5888 493.846 86.7621C515.123 103.759 534.568 122.96 551.86 144.049C384.115 114.55 217.862 190.905 54.8411 374.531C234.41 239.068 411.423 178.527 585.881 192.908C597.397 212.647 607.106 233.399 614.889 254.909C469.107 242.309 319.318 311.459 165.525 462.36C326.308 357.049 480.461 305.604 629.641 308.9C634.226 332.345 636.53 356.185 636.52 380.081C636.52 589.242 461.357 759.768 246.538 759.768C31.7182 759.768 -143.444 589.159 -143.444 380.081C-143.444 171.003 31.7596 0.393799 246.538 0.393799" fill="url(#paint0_linear_257_14577)"/>
<defs>
<linearGradient id="paint0_linear_257_14577" x1="563.574" y1="63.9218" x2="0.581697" y2="632.567" gradientUnits="userSpaceOnUse">
<stop stop-color="white"/>
<stop offset="1" stop-color="white" stop-opacity="0"/>
</linearGradient>
</defs>
</svg>
