<svg width="167" height="57" viewBox="0 0 167 57" fill="none" xmlns="http://www.w3.org/2000/svg">
<path fill-rule="evenodd" clip-rule="evenodd" d="M39.9103 1.11508C43.0809 1.11132 46.2212 1.73631 49.1519 2.95437C39.5649 1.95724 30.1209 6.68096 20.8199 17.1255C32.3123 8.41246 43.6633 4.81809 54.873 6.34241C56.1614 7.37164 57.3389 8.53432 58.386 9.8113C48.2285 8.02506 38.1614 12.6486 28.29 23.7677C39.1634 15.565 49.8821 11.899 60.446 12.7698C61.1434 13.9651 61.7313 15.2217 62.2025 16.5242C53.375 15.7612 44.3049 19.9485 34.9922 29.086C44.7281 22.7091 54.0625 19.5939 63.0958 19.7935C63.3734 21.2132 63.5129 22.6568 63.5124 24.1037C63.5124 36.7691 52.9057 47.0949 39.8978 47.0949C26.8898 47.0949 16.2832 36.764 16.2832 24.1037C16.2832 11.4434 26.8923 1.11255 39.8978 1.11255" fill="white"/>
<path fill-rule="evenodd" clip-rule="evenodd" d="M38.7911 36.4125H165.591V35.0027L39.3758 35.0735L26.0115 34.6137C20.5539 34.1892 16.3659 33.5854 13.5154 32.9487C8.69264 31.7057 5.94751 30.2176 5.23489 28.401C4.56491 26.8068 5.51592 25.2479 8.15566 23.828L13.7362 21.491L16.3333 20.6017C16.9656 20.2808 16.79 20.2454 15.8039 20.4248L12.1102 21.2384C10.5595 21.6653 9.29235 22.0544 8.16569 22.4789C6.8523 22.9211 5.5802 23.4791 4.36417 24.1464C2.25389 25.3136 1.05698 26.5567 0.773432 27.7972C0.351878 29.5657 1.82983 31.2686 5.1044 32.8653C7.39284 33.9972 10.3738 34.7779 13.9746 35.311L23.7256 36.1953C27.2009 36.3696 32.2244 36.4075 38.7811 36.4075" fill="white"/>
<path d="M165.546 5.17288L160.721 8.98032C159.03 6.885 157.307 5.83735 155.552 5.83735C154.805 5.80449 154.069 6.01832 153.454 6.44623C152.907 6.85805 152.636 7.31788 152.636 7.82823C152.645 8.36701 152.852 8.8834 153.216 9.27844C153.748 9.88649 155.344 11.1918 158.003 13.1945C160.491 15.0473 161.996 16.2154 162.52 16.6988C163.84 17.8879 164.777 19.0232 165.333 20.1045C165.884 21.2067 166.167 22.4252 166.158 23.6593C166.158 26.1656 165.19 28.2247 163.243 29.8618C161.295 31.499 158.774 32.305 155.645 32.305C153.206 32.305 151.083 31.7736 149.276 30.7108C147.469 29.6479 145.918 27.9746 144.621 25.6906L150.109 22.7447C151.76 25.4396 153.658 26.7871 155.803 26.7871C156.82 26.8211 157.819 26.5116 158.641 25.9079C159.4 25.3268 159.781 24.653 159.782 23.8867C159.782 23.1995 159.496 22.5072 158.917 21.8124C158.337 21.1176 157.075 20.0641 155.113 18.6391C151.382 15.9442 148.973 13.8556 147.886 12.3734C146.8 10.9005 146.25 9.43508 146.25 7.96971C146.25 5.8525 147.153 4.04016 148.96 2.53268C150.767 1.0252 152.998 0.267252 155.655 0.25883C157.335 0.25436 158.998 0.614559 160.528 1.31491C162.076 2.02233 163.745 3.30326 165.546 5.17288ZM128.101 18.1869V26.0039H129.752C132.492 26.0039 134.344 25.7007 135.295 25.0893C135.748 24.8177 136.12 24.4279 136.372 23.9609C136.624 23.494 136.746 22.9673 136.725 22.4365C136.737 21.8181 136.588 21.2073 136.294 20.6642C136 20.1211 135.571 19.6643 135.049 19.339C133.93 18.581 132.071 18.2012 129.473 18.1995L128.101 18.1869ZM128.101 6.54729V13.005H129.553C131.174 13.005 132.381 12.7069 133.167 12.1056C133.546 11.8278 133.852 11.4603 134.057 11.0357C134.262 10.611 134.361 10.142 134.344 9.67005C134.356 9.22757 134.26 8.78889 134.064 8.39245C133.869 7.99601 133.579 7.65393 133.222 7.3962C132.469 6.83784 131.34 6.55487 129.817 6.55487L128.101 6.54729ZM121.634 31.5268V1.02436H127.034C130.171 1.02436 132.457 1.20122 133.909 1.56251C135.967 2.04928 137.603 2.94871 138.818 4.26081C140.007 5.51088 140.663 7.18074 140.644 8.9121C140.656 10.0228 140.371 11.1162 139.819 12.0778C139.272 13.0252 138.373 13.9171 137.134 14.7458C139.198 15.6183 140.711 16.7064 141.673 18.01C142.645 19.3527 143.149 20.9805 143.108 22.6411C143.114 24.3225 142.587 25.9618 141.603 27.3202C140.63 28.7105 139.294 29.8033 137.744 30.4783C136.173 31.1807 133.998 31.5302 131.22 31.5268H121.634ZM102.842 9.1319L98.2053 19.632H107.457L102.842 9.1319ZM99.5528 1.02436H106.112L119.278 31.5268H112.503L109.841 25.2384H95.814L93.084 31.5268H86.309L99.5528 1.02436ZM77.7223 12.9621H79.81C81.4561 12.9621 82.5903 12.856 83.2326 12.6513C83.8314 12.4693 84.361 12.108 84.7507 11.6155C85.1242 11.1117 85.317 10.4954 85.2978 9.86712C85.3228 9.32975 85.1884 8.79704 84.9118 8.33678C84.6352 7.87653 84.2289 7.50953 83.7445 7.28251C82.9918 6.88079 81.6016 6.67362 79.5691 6.67362H77.7223V12.9621ZM71.2334 1.02436H78.1489C81.891 1.02436 84.586 1.33091 86.2337 1.94401C87.8161 2.50766 89.1844 3.55423 90.1481 4.93791C91.1017 6.31233 91.5784 7.96213 91.5784 9.88733C91.5784 12.018 90.9511 13.7866 89.6965 15.193C88.4418 16.5994 86.7422 17.5814 84.5977 18.1389C83.3364 18.4572 81.0412 18.6147 77.7123 18.6113V31.5268H71.2334V1.02436Z" fill="white"/>
<path d="M148.498 52.3241L147.715 53.1174C147.499 52.8514 147.189 52.6795 146.85 52.6374C146.731 52.6304 146.614 52.6623 146.516 52.7284C146.479 52.7531 146.449 52.7865 146.428 52.8257C146.407 52.8649 146.396 52.9087 146.395 52.9532C146.396 53.0237 146.423 53.0914 146.471 53.1427C146.584 53.2406 146.712 53.3206 146.85 53.3802L147.314 53.6126C147.7 53.778 148.043 54.0304 148.317 54.3504C148.5 54.6081 148.595 54.9182 148.588 55.2346C148.592 55.4481 148.549 55.6597 148.462 55.8544C148.376 56.0492 148.247 56.2223 148.087 56.3615C147.718 56.6766 147.244 56.8384 146.762 56.8137C146.421 56.8224 146.083 56.7479 145.777 56.5966C145.471 56.4452 145.207 56.2215 145.005 55.9446L145.786 55.0906C145.933 55.263 146.111 55.4061 146.31 55.5126C146.472 55.6081 146.654 55.6635 146.842 55.6743C146.986 55.6818 147.129 55.6389 147.246 55.553C147.292 55.5219 147.33 55.4803 147.357 55.4316C147.384 55.3828 147.399 55.3283 147.402 55.2725C147.402 55.078 147.216 54.886 146.847 54.7015L146.42 54.4843C145.602 54.0725 145.196 53.5545 145.196 52.933C145.194 52.7388 145.235 52.5465 145.314 52.3694C145.393 52.1923 145.51 52.0347 145.655 51.9072C145.979 51.6167 146.401 51.4637 146.834 51.4803C147.156 51.4789 147.473 51.5533 147.76 51.6975C148.05 51.8463 148.302 52.0608 148.496 52.3241M143.111 53.509C143.026 53.232 142.848 52.993 142.609 52.8319C142.356 52.6593 142.056 52.5709 141.751 52.5793C141.417 52.5723 141.09 52.6752 140.82 52.8724C140.614 53.0449 140.455 53.2663 140.356 53.5166L143.111 53.509ZM144.365 54.5045H140.3C140.345 54.8419 140.512 55.1507 140.77 55.3711C141.044 55.5923 141.389 55.7062 141.741 55.6919C141.967 55.6948 142.191 55.6515 142.401 55.5646C142.61 55.4778 142.799 55.3492 142.958 55.1866L144.019 55.6919C143.777 56.0494 143.449 56.3396 143.066 56.5358C142.653 56.7266 142.202 56.8199 141.748 56.8087C141.392 56.8221 141.037 56.7617 140.705 56.6313C140.373 56.5009 140.072 56.3033 139.819 56.0507C139.572 55.8048 139.378 55.5108 139.249 55.1867C139.119 54.8625 139.057 54.5152 139.066 54.1659C139.056 53.8101 139.117 53.4559 139.247 53.1246C139.376 52.7934 139.571 52.4918 139.819 52.2382C140.06 51.9882 140.351 51.7917 140.673 51.6612C140.994 51.5307 141.339 51.4691 141.685 51.4803C142.043 51.4658 142.399 51.5256 142.732 51.6561C143.066 51.7865 143.369 51.9846 143.623 52.2382C143.877 52.5069 144.074 52.8243 144.203 53.1716C144.333 53.5189 144.391 53.8889 144.375 54.2594L144.365 54.5045ZM138.168 52.6374L137.114 53.2235C136.961 53.0404 136.768 52.8951 136.55 52.7987C136.333 52.7024 136.096 52.6576 135.859 52.6677C135.649 52.6583 135.439 52.6909 135.242 52.7638C135.045 52.8367 134.864 52.9483 134.71 53.0922C134.565 53.2324 134.451 53.4018 134.375 53.5895C134.299 53.7771 134.264 53.9787 134.271 54.1811C134.264 54.377 134.297 54.5723 134.37 54.7542C134.443 54.9362 134.552 55.1007 134.692 55.2372C134.841 55.3756 135.016 55.4829 135.206 55.5527C135.397 55.6226 135.599 55.6536 135.801 55.6439C136.052 55.6565 136.301 55.6104 136.531 55.5091C136.76 55.4078 136.963 55.2542 137.124 55.0603L138.127 55.75C137.859 56.1005 137.51 56.3803 137.11 56.5655C136.711 56.7507 136.273 56.8359 135.834 56.8137C134.944 56.8137 134.248 56.5493 133.746 56.0204C133.457 55.7285 133.24 55.3723 133.113 54.9805C132.986 54.5888 132.952 54.1724 133.014 53.765C133.076 53.3576 133.232 52.9706 133.47 52.6352C133.708 52.2997 134.021 52.0253 134.384 51.834C134.836 51.5948 135.341 51.4732 135.851 51.4803C136.319 51.4726 136.783 51.5756 137.204 51.7809C137.594 51.9791 137.929 52.2738 138.175 52.6374H138.168ZM130.81 51.6041H132.065V56.6874H130.81V51.6041ZM131.448 49.5172C131.555 49.5172 131.661 49.5397 131.759 49.5832C131.857 49.6267 131.945 49.6902 132.017 49.7698C132.097 49.8448 132.161 49.9356 132.204 50.0365C132.247 50.1373 132.269 50.2461 132.268 50.356C132.27 50.4635 132.251 50.5704 132.21 50.6699C132.169 50.7694 132.109 50.8595 132.032 50.9345C131.958 51.0114 131.87 51.0725 131.772 51.1143C131.674 51.156 131.569 51.1775 131.463 51.1775C131.357 51.1775 131.251 51.156 131.153 51.1143C131.056 51.0725 130.967 51.0114 130.893 50.9345C130.813 50.8581 130.75 50.766 130.707 50.6639C130.663 50.5618 130.642 50.4518 130.642 50.3408C130.643 50.2343 130.664 50.1289 130.705 50.0306C130.745 49.9324 130.805 49.8432 130.88 49.7681C130.955 49.693 131.044 49.6335 131.142 49.5931C131.24 49.5526 131.344 49.532 131.45 49.5323L131.448 49.5172ZM125.082 51.6041H126.379L127.656 54.6055L128.938 51.6041H130.226L128.053 56.6874H127.242L125.082 51.6041ZM122.284 51.6041H123.391V52.2508C123.489 52.0195 123.649 51.8207 123.855 51.6773C124.043 51.5485 124.265 51.4799 124.492 51.4803C124.667 51.4859 124.838 51.5307 124.994 51.6116L124.6 52.7107C124.488 52.6474 124.364 52.6094 124.236 52.5995C124.127 52.606 124.022 52.6436 123.933 52.708C123.844 52.7724 123.775 52.861 123.734 52.9633C123.599 53.216 123.534 53.6834 123.534 54.3908V54.6434V56.6924H122.279L122.284 51.6041ZM120.277 53.509C120.191 53.232 120.014 52.993 119.775 52.8319C119.522 52.659 119.222 52.5706 118.917 52.5793C118.583 52.5723 118.256 52.6752 117.986 52.8724C117.781 53.0456 117.621 53.2668 117.521 53.5166L120.277 53.509ZM121.531 54.5045H117.466C117.512 54.8416 117.679 55.1501 117.935 55.3711C118.21 55.5923 118.555 55.7062 118.906 55.6919C119.133 55.6952 119.357 55.6521 119.567 55.5652C119.776 55.4784 119.965 55.3496 120.123 55.1866L121.185 55.6919C120.944 56.0509 120.616 56.3414 120.231 56.5358C119.819 56.7271 119.368 56.8205 118.914 56.8087C118.558 56.8221 118.203 56.7617 117.871 56.6313C117.539 56.5009 117.237 56.3033 116.984 56.0507C116.738 55.8045 116.545 55.5104 116.415 55.1863C116.286 54.8623 116.223 54.5151 116.232 54.1659C116.222 53.8102 116.284 53.4562 116.413 53.125C116.543 52.7938 116.737 52.4922 116.984 52.2382C117.227 51.989 117.518 51.7929 117.839 51.6625C118.16 51.532 118.505 51.47 118.851 51.4803C119.209 51.4659 119.566 51.5258 119.899 51.6562C120.233 51.7866 120.537 51.9847 120.791 52.2382C121.044 52.5075 121.241 52.8251 121.37 53.1722C121.499 53.5193 121.558 53.889 121.544 54.2594L121.531 54.5045ZM115.258 50.7501L114.294 51.6041C113.96 51.1308 113.616 50.895 113.263 50.8966C113.112 50.8901 112.963 50.9385 112.844 51.0331C112.795 51.069 112.755 51.1157 112.727 51.1695C112.699 51.2234 112.683 51.283 112.681 51.3438C112.682 51.4632 112.723 51.5789 112.796 51.6723C113.094 51.9891 113.413 52.2837 113.752 52.554C114.254 52.9709 114.55 53.2362 114.656 53.3448C114.884 53.5639 115.074 53.8201 115.218 54.1028C115.328 54.3561 115.383 54.6298 115.381 54.9062C115.388 55.1671 115.34 55.4266 115.24 55.6675C115.14 55.9084 114.991 56.1251 114.801 56.3034C114.387 56.6803 113.841 56.8781 113.283 56.8541C112.834 56.8644 112.392 56.7395 112.014 56.4954C111.611 56.206 111.29 55.8159 111.083 55.3635L112.179 54.699C112.514 55.3054 112.893 55.6086 113.316 55.6086C113.522 55.6147 113.723 55.5446 113.88 55.4115C113.95 55.3581 114.006 55.2898 114.045 55.2114C114.084 55.1331 114.105 55.0469 114.106 54.9593C114.102 54.7889 114.042 54.6247 113.936 54.4918C113.709 54.2284 113.457 53.9888 113.183 53.7768C112.642 53.3722 112.157 52.8973 111.74 52.3645C111.536 52.0733 111.423 51.7278 111.414 51.3716C111.412 51.1402 111.459 50.9112 111.553 50.6998C111.646 50.4884 111.784 50.2997 111.956 50.1463C112.317 49.8075 112.797 49.626 113.291 49.641C113.629 49.6413 113.963 49.7227 114.264 49.8785C114.655 50.1013 115 50.3971 115.281 50.7501H115.258ZM107.775 52.3241L106.993 53.1174C106.777 52.8506 106.466 52.6785 106.127 52.6374C106.01 52.6308 105.893 52.6627 105.796 52.7284C105.759 52.7531 105.729 52.7865 105.708 52.8257C105.687 52.8649 105.676 52.9087 105.675 52.9532C105.676 53.0237 105.702 53.0914 105.75 53.1427C105.864 53.2412 105.992 53.3213 106.129 53.3802L106.591 53.6126C106.977 53.7777 107.321 54.0302 107.595 54.3504C107.807 54.6573 107.901 55.0315 107.86 55.4032C107.819 55.775 107.646 56.1191 107.371 56.3716C107.003 56.6865 106.529 56.8483 106.047 56.8238C105.706 56.8323 105.368 56.7577 105.062 56.6064C104.757 56.455 104.492 56.2315 104.29 55.9547L105.073 55.1007C105.22 55.2731 105.398 55.4162 105.597 55.5227C105.759 55.6185 105.942 55.674 106.129 55.6844C106.274 55.6914 106.416 55.6487 106.533 55.5631C106.579 55.532 106.617 55.4904 106.644 55.4416C106.67 55.3928 106.685 55.3383 106.686 55.2826C106.686 55.0881 106.503 54.8961 106.134 54.7117L105.708 54.4944C104.89 54.0817 104.481 53.5646 104.481 52.9431C104.48 52.7487 104.52 52.5564 104.6 52.3793C104.68 52.2022 104.797 52.0446 104.942 51.9173C105.266 51.6264 105.689 51.4733 106.122 51.4904C106.445 51.4879 106.764 51.5632 107.053 51.71C107.341 51.8567 107.591 52.0708 107.78 52.3342L107.775 52.3241ZM103.593 52.3241L102.81 53.1174C102.593 52.851 102.283 52.679 101.944 52.6374C101.826 52.6311 101.709 52.663 101.61 52.7284C101.573 52.7531 101.543 52.7865 101.522 52.8257C101.501 52.8649 101.49 52.9087 101.49 52.9532C101.491 53.024 101.519 53.0917 101.568 53.1427C101.68 53.2418 101.808 53.322 101.946 53.3802L102.408 53.6126C102.795 53.7766 103.139 54.0292 103.412 54.3504C103.626 54.6567 103.721 55.0309 103.68 55.4029C103.64 55.775 103.466 56.1194 103.191 56.3716C102.822 56.6865 102.347 56.8481 101.864 56.8238C101.523 56.8325 101.185 56.758 100.879 56.6067C100.573 56.4553 100.308 56.2316 100.107 55.9547L100.888 55.1007C101.036 55.2732 101.214 55.4163 101.414 55.5227C101.576 55.6188 101.759 55.6743 101.946 55.6844C102.091 55.691 102.233 55.6483 102.35 55.5631C102.396 55.532 102.434 55.4904 102.461 55.4416C102.487 55.3928 102.502 55.3383 102.504 55.2826C102.504 55.0881 102.32 54.8961 101.951 54.7117L101.525 54.4944C100.712 54.075 100.305 53.557 100.305 52.9406C100.304 52.7461 100.344 52.5536 100.424 52.3765C100.504 52.1993 100.621 52.0418 100.767 51.9148C101.09 51.6236 101.513 51.4705 101.946 51.4878C102.267 51.4868 102.583 51.5612 102.87 51.7051C103.163 51.8498 103.418 52.0618 103.615 52.3241H103.593ZM98.2077 53.509C98.1225 53.232 97.9453 52.993 97.7058 52.8319C97.4532 52.659 97.153 52.5706 96.8476 52.5793C96.5139 52.5723 96.1871 52.6752 95.9167 52.8724C95.7119 53.0456 95.5525 53.2668 95.4525 53.5166L98.2077 53.509ZM99.4623 54.5045H95.3973C95.4427 54.8416 95.6097 55.1501 95.8665 55.3711C96.1413 55.5923 96.4861 55.7062 96.8376 55.6919C97.0639 55.6952 97.2885 55.6521 97.4977 55.5652C97.7069 55.4784 97.8964 55.3496 98.0546 55.1866L99.116 55.6919C98.8753 56.0509 98.5469 56.3414 98.1625 56.5358C97.7499 56.7271 97.2992 56.8205 96.8451 56.8087C96.4891 56.8221 96.1341 56.7617 95.8022 56.6313C95.4703 56.5009 95.1685 56.3033 94.9155 56.0507C94.6695 55.8045 94.4759 55.5104 94.3465 55.1863C94.2171 54.8623 94.1545 54.5151 94.1627 54.1659C94.1532 53.8102 94.215 53.4562 94.3443 53.125C94.4737 52.7938 94.6679 52.4922 94.9155 52.2382C95.1579 51.989 95.4489 51.7929 95.7702 51.6625C96.0915 51.532 96.4361 51.47 96.7824 51.4803C97.1401 51.4659 97.4968 51.5258 97.8305 51.6562C98.1642 51.7866 98.4677 51.9847 98.7221 52.2382C98.9751 52.5075 99.172 52.8251 99.3013 53.1722C99.4306 53.5193 99.4896 53.889 99.4748 54.2594L99.4623 54.5045ZM88.7026 51.6041H89.9572V52.127C90.1902 51.9194 90.4534 51.749 90.7376 51.6217C90.9657 51.5288 91.2093 51.4808 91.4553 51.4803C91.7 51.469 91.9444 51.5099 92.1723 51.6005C92.4002 51.6911 92.6065 51.8292 92.7776 52.0058C92.9347 52.1865 93.0546 52.3968 93.1304 52.6245C93.2062 52.8521 93.2364 53.0927 93.2193 53.3322V56.6874H91.9646V54.4565C91.9812 54.0521 91.9534 53.6471 91.8818 53.2488C91.8413 53.0699 91.7423 52.9097 91.6008 52.794C91.4558 52.6865 91.279 52.6313 91.0989 52.6374C90.8546 52.6316 90.6178 52.7223 90.439 52.89C90.244 53.0858 90.1112 53.3356 90.0576 53.6076C90.0083 53.9488 89.9899 54.2938 90.0024 54.6384V56.6722H88.7478L88.7026 51.6041ZM86.2912 51.6041H87.5458V56.6874H86.2912V51.6041ZM86.9261 49.5172C87.0332 49.5172 87.1392 49.5397 87.2372 49.5832C87.3353 49.6267 87.4233 49.6902 87.4957 49.7698C87.5753 49.8449 87.6387 49.9357 87.6818 50.0365C87.725 50.1374 87.7471 50.2461 87.7466 50.356C87.7482 50.4637 87.7279 50.5706 87.6869 50.6701C87.6459 50.7696 87.5851 50.8596 87.5082 50.9345C87.4343 51.0114 87.3458 51.0725 87.2479 51.1143C87.1501 51.156 87.0449 51.1775 86.9386 51.1775C86.8323 51.1775 86.7272 51.156 86.6293 51.1143C86.5315 51.0725 86.4429 51.0114 86.369 50.9345C86.2891 50.8581 86.2255 50.766 86.1824 50.6639C86.1392 50.5618 86.1173 50.4518 86.1181 50.3408C86.1184 50.2343 86.1396 50.1289 86.1804 50.0306C86.2211 49.9324 86.2807 49.8432 86.3558 49.7681C86.4308 49.693 86.5198 49.6335 86.6176 49.5931C86.7155 49.5526 86.8203 49.532 86.9261 49.5323V49.5172ZM85.3302 52.3241L84.5473 53.1174C84.331 52.851 84.0209 52.679 83.6816 52.6374C83.5635 52.6308 83.4465 52.6627 83.3479 52.7284C83.3111 52.7531 83.2809 52.7865 83.2599 52.8257C83.2389 52.8649 83.2278 52.9087 83.2274 52.9532C83.2276 53.0242 83.2556 53.0923 83.3052 53.1427C83.4175 53.2413 83.5445 53.3215 83.6816 53.3802L84.1458 53.6126C84.5324 53.7773 84.876 54.0298 85.1495 54.3504C85.3632 54.6567 85.4586 55.0309 85.418 55.4029C85.3773 55.775 85.2034 56.1194 84.9287 56.3716C84.5593 56.6865 84.0847 56.8481 83.6013 56.8238C83.2606 56.8325 82.9228 56.758 82.617 56.6067C82.3111 56.4553 82.0461 56.2316 81.8448 55.9547L82.6252 55.1007C82.7729 55.2725 82.9506 55.4156 83.1496 55.5227C83.3125 55.6186 83.4957 55.674 83.6841 55.6844C83.8285 55.691 83.9709 55.6483 84.0881 55.5631C84.134 55.532 84.1718 55.4904 84.1985 55.4416C84.2251 55.3928 84.2397 55.3383 84.2412 55.2826C84.2412 55.0881 84.058 54.8961 83.6866 54.7117L83.2625 54.4944C82.4445 54.0817 82.0355 53.5646 82.0355 52.9431C82.0339 52.7486 82.0743 52.5561 82.1541 52.379C82.2338 52.2018 82.3509 52.0443 82.4972 51.9173C82.8195 51.6265 83.2416 51.4734 83.6741 51.4904C83.9953 51.489 84.3124 51.5634 84.6 51.7076C84.8974 51.8499 85.1571 52.0612 85.3578 52.3241H85.3302ZM76.5327 51.6041H77.815V54.0497C77.7992 54.383 77.833 54.7169 77.9153 55.0401C77.9711 55.2143 78.081 55.3658 78.229 55.4721C78.3855 55.5792 78.5719 55.6332 78.761 55.6263C78.9519 55.632 79.1401 55.5792 79.3004 55.4747C79.4545 55.3657 79.5698 55.2099 79.6292 55.03C79.699 54.722 79.726 54.4057 79.7095 54.0901V51.6041H80.9641V53.7566C80.9641 54.6443 80.8938 55.2506 80.7533 55.5757C80.6025 55.9524 80.3395 56.2728 80.0005 56.4928C79.6212 56.7178 79.1859 56.8291 78.7459 56.8137C78.2696 56.8351 77.7988 56.7042 77.4009 56.4398C77.0536 56.1816 76.7998 55.816 76.6783 55.3989C76.5536 54.8481 76.5038 54.2829 76.5302 53.7187L76.5327 51.6041ZM72.4427 53.6834V55.4519H72.7739C73.3184 55.4519 73.6898 55.3837 73.8779 55.2447C73.9716 55.1777 74.047 55.0878 74.097 54.9836C74.147 54.8794 74.1701 54.7641 74.164 54.6485C74.1715 54.5162 74.1477 54.3839 74.0945 54.2627C74.0412 54.1414 73.9601 54.0347 73.8579 53.9512C73.5221 53.7535 73.1338 53.6652 72.7463 53.6985L72.4427 53.6834ZM72.4427 51.0583V52.5136H72.7337C72.9901 52.535 73.2455 52.4633 73.4539 52.3115C73.5321 52.2442 73.594 52.1599 73.6349 52.0648C73.6757 51.9698 73.6945 51.8667 73.6898 51.7632C73.6921 51.6676 73.6733 51.5726 73.6347 51.4852C73.5961 51.3978 73.5386 51.3202 73.4664 51.2579C73.2686 51.117 73.0281 51.05 72.7864 51.0684L72.4427 51.0583ZM71.1504 56.6874V49.8128H72.2269C72.6876 49.7962 73.1486 49.837 73.5994 49.934C73.9823 50.0271 74.3259 50.2403 74.5805 50.5429C74.8214 50.838 74.9503 51.2096 74.9444 51.5914C74.9478 51.839 74.8909 52.0836 74.7788 52.3039C74.649 52.5431 74.4661 52.7489 74.2443 52.9052C74.609 53.0618 74.9235 53.3172 75.1527 53.6429C75.3485 53.9546 75.4481 54.3177 75.4387 54.6864C75.4422 55.0592 75.3385 55.4251 75.1401 55.7399C74.9548 56.0455 74.6879 56.2924 74.3698 56.4524C73.9599 56.6293 73.5153 56.7096 73.07 56.6874H71.1504ZM163.897 46.2681C163.542 45.8957 163.207 45.5043 162.894 45.0958C162.432 45.4798 162.201 45.8167 162.201 46.1064C162.204 46.178 162.222 46.2482 162.254 46.312C162.287 46.3757 162.333 46.4315 162.389 46.4753C162.523 46.5892 162.694 46.6487 162.869 46.642C163.247 46.6112 163.611 46.4824 163.925 46.2681H163.897ZM163.117 43.4359C163.461 43.1403 163.634 42.88 163.634 42.6501C163.636 42.5967 163.627 42.5434 163.607 42.4938C163.587 42.4441 163.557 42.3993 163.518 42.3621C163.477 42.3239 163.428 42.2944 163.375 42.2753C163.322 42.2562 163.266 42.2479 163.21 42.2509C163.154 42.2497 163.099 42.2602 163.047 42.282C162.996 42.3038 162.949 42.3362 162.911 42.3773C162.872 42.415 162.84 42.4604 162.819 42.5108C162.797 42.5612 162.786 42.6155 162.786 42.6703C162.819 42.9583 162.945 43.2273 163.145 43.4359H163.117ZM165.586 44.9518L166.361 45.8436L166.01 46.1645L165.661 46.4803L166.758 47.6551H165.18L164.73 47.1877C164.13 47.578 163.437 47.7988 162.723 47.8269C162.256 47.8471 161.8 47.6809 161.453 47.3646C161.294 47.2126 161.168 47.0281 161.084 46.8234C161.001 46.6186 160.961 46.3983 160.969 46.1771C160.968 45.8141 161.063 45.4574 161.245 45.1438C161.49 44.7478 161.809 44.4043 162.186 44.1332C161.748 43.5369 161.529 43.0097 161.529 42.5516C161.543 42.1715 161.699 41.8108 161.965 41.541C162.298 41.2231 162.739 41.0458 163.197 41.0458C163.656 41.0458 164.097 41.2231 164.429 41.541C164.657 41.7623 164.804 42.0548 164.846 42.3709C164.888 42.6869 164.823 43.008 164.66 43.2818C164.416 43.6734 164.123 44.0324 163.789 44.3505C164.342 45.0074 164.699 45.4167 164.861 45.5784C164.956 45.5076 165.207 45.2954 165.614 44.9467L165.586 44.9518ZM154.643 43.643C154.457 43.6358 154.272 43.6677 154.099 43.7369C153.926 43.8061 153.77 43.911 153.64 44.0448C153.385 44.3244 153.244 44.6899 153.244 45.0693C153.244 45.4486 153.385 45.8142 153.64 46.0938C153.771 46.2263 153.927 46.3305 154.1 46.4C154.273 46.4695 154.457 46.5028 154.643 46.498C154.824 46.5033 155.005 46.4708 155.173 46.4025C155.341 46.3343 155.493 46.2317 155.619 46.1013C155.749 45.9634 155.85 45.8006 155.916 45.6227C155.982 45.4447 156.011 45.2552 156.003 45.0655C156.011 44.8771 155.981 44.689 155.915 44.5126C155.848 44.3363 155.747 44.1754 155.617 44.0397C155.367 43.7849 155.027 43.6404 154.671 43.638L154.643 43.643ZM155.968 42.5718H157.223V46.9224C157.223 47.7789 157.05 48.4131 156.706 48.8148C156.244 49.3622 155.548 49.6368 154.618 49.6384C154.192 49.6496 153.768 49.5863 153.364 49.4515C153.04 49.3362 152.747 49.1478 152.508 48.9007C152.27 48.6513 152.093 48.3494 151.991 48.019H153.394C153.524 48.1655 153.689 48.2767 153.873 48.3423C154.097 48.4186 154.332 48.4553 154.568 48.451C154.852 48.4631 155.134 48.4086 155.394 48.2918C155.579 48.2072 155.733 48.0646 155.833 47.885C155.936 47.6096 155.98 47.3149 155.961 47.021C155.762 47.2301 155.523 47.3954 155.258 47.5061C154.993 47.61 154.71 47.6606 154.425 47.6551C154.102 47.661 153.781 47.5983 153.484 47.4712C153.186 47.3441 152.919 47.1554 152.699 46.9174C152.238 46.3891 151.988 45.7082 151.996 45.0055C152.004 44.3027 152.269 43.6276 152.741 43.11C152.952 42.8964 153.204 42.7277 153.481 42.614C153.758 42.5003 154.055 42.4439 154.355 42.448C154.638 42.4466 154.92 42.5006 155.183 42.6072C155.471 42.7363 155.735 42.9159 155.961 43.1377L155.968 42.5718ZM146.516 42.5718H147.77V43.0872C148.003 42.8796 148.267 42.7092 148.551 42.5819C148.779 42.488 149.022 42.44 149.268 42.4404C149.505 42.4359 149.741 42.4801 149.96 42.5705C150.179 42.6609 150.378 42.7954 150.543 42.9659C150.7 43.1467 150.82 43.357 150.896 43.5846C150.972 43.8123 151.002 44.0529 150.985 44.2924V47.6476H149.73V45.4242C149.747 45.0207 149.719 44.6165 149.647 44.2191C149.607 44.0401 149.508 43.88 149.366 43.7643C149.221 43.6566 149.045 43.6014 148.864 43.6077C148.619 43.6015 148.382 43.6922 148.202 43.8603C148.007 44.0548 147.874 44.3039 147.821 44.5753C147.771 44.9166 147.753 45.2616 147.765 45.6061V47.6425H146.511L146.516 42.5718ZM144.104 42.5718H145.359V47.6551H144.104V42.5718ZM144.739 40.4849C144.846 40.485 144.952 40.5075 145.05 40.551C145.148 40.5945 145.236 40.658 145.309 40.7376C145.389 40.812 145.452 40.9023 145.495 41.0028C145.539 41.1033 145.56 41.2117 145.56 41.3212C145.561 41.4291 145.541 41.5361 145.501 41.636C145.46 41.7358 145.4 41.8264 145.324 41.9023C145.249 41.9783 145.16 42.0386 145.062 42.0798C144.964 42.121 144.859 42.1422 144.753 42.1422C144.647 42.1422 144.542 42.121 144.444 42.0798C144.346 42.0386 144.257 41.9783 144.182 41.9023C144.102 41.8258 144.039 41.7337 143.996 41.6315C143.953 41.5294 143.931 41.4195 143.931 41.3086C143.933 41.0939 144.019 40.8886 144.17 40.7373C144.322 40.586 144.526 40.5007 144.739 40.5001V40.4849ZM141.537 40.6946H142.792V42.5718H143.545V43.6734H142.792V47.6551H141.537V43.6683H140.89V42.5668H141.537V40.6946ZM135.678 42.5718H136.933V43.0872C137.166 42.8802 137.429 42.7098 137.713 42.5819C137.941 42.488 138.185 42.44 138.431 42.4404C138.668 42.4359 138.903 42.4801 139.122 42.5705C139.342 42.6609 139.54 42.7954 139.706 42.9659C139.863 43.1467 139.983 43.357 140.058 43.5846C140.134 43.8123 140.164 44.0529 140.147 44.2924V47.6476H138.893V45.4242C138.909 45.0207 138.882 44.6165 138.81 44.2191C138.769 44.0401 138.67 43.88 138.529 43.7643C138.384 43.6566 138.207 43.6014 138.027 43.6077C137.782 43.6018 137.544 43.6924 137.365 43.8603C137.17 44.0554 137.037 44.3042 136.983 44.5753C136.935 44.9167 136.917 45.2616 136.928 45.6061V47.6425H135.673L135.678 42.5718ZM129.972 42.5718H131.255V45.0149C131.24 45.3489 131.273 45.6833 131.352 46.0079C131.41 46.1811 131.52 46.3321 131.666 46.4399C131.824 46.5447 132.011 46.5977 132.201 46.5915C132.391 46.5973 132.58 46.5444 132.74 46.4399C132.894 46.3314 133.01 46.1753 133.069 45.9952C133.137 45.6878 133.163 45.3724 133.146 45.0579V42.5718H134.401V44.7219C134.401 45.6087 134.333 46.215 134.193 46.5435C134.04 46.9192 133.778 47.2392 133.44 47.4606C133.06 47.6847 132.625 47.7951 132.185 47.7789C131.709 47.8011 131.239 47.6711 130.84 47.4075C130.493 47.15 130.239 46.7841 130.118 46.3666C129.993 45.8159 129.944 45.2507 129.97 44.6865L129.972 42.5718ZM126.279 43.643C126.095 43.6386 125.913 43.673 125.743 43.7439C125.574 43.8149 125.421 43.9208 125.295 44.0549C125.163 44.1958 125.06 44.3618 124.993 44.5431C124.925 44.7244 124.894 44.9174 124.901 45.1109C124.893 45.3065 124.923 45.5018 124.99 45.6856C125.056 45.8694 125.158 46.0382 125.29 46.1822C125.416 46.3166 125.569 46.4225 125.738 46.4931C125.908 46.5636 126.09 46.5972 126.274 46.5915C126.458 46.5958 126.642 46.5612 126.813 46.4899C126.983 46.4185 127.137 46.312 127.265 46.1771C127.517 45.8811 127.656 45.5038 127.656 45.1135C127.656 44.7232 127.517 44.3458 127.265 44.0498C127.141 43.9191 126.993 43.8152 126.828 43.7444C126.663 43.6736 126.485 43.6374 126.306 43.638L126.279 43.643ZM126.259 42.448C126.731 42.4464 127.196 42.5702 127.606 42.8068C128.016 43.0344 128.356 43.3708 128.59 43.7795C128.823 44.1827 128.945 44.6416 128.943 45.1084C128.945 45.5795 128.822 46.0424 128.587 46.45C128.358 46.8582 128.023 47.1961 127.619 47.4277C127.206 47.663 126.738 47.7841 126.264 47.7789C125.918 47.7846 125.575 47.7187 125.255 47.5853C124.936 47.4518 124.647 47.2538 124.407 47.0033C124.041 46.6307 123.792 46.158 123.691 45.644C123.59 45.1301 123.642 44.5976 123.839 44.1128C124.036 43.6281 124.371 43.2125 124.801 42.9178C125.231 42.6231 125.738 42.4624 126.259 42.4556V42.448ZM122.746 43.6052L121.692 44.1888C121.527 44.0061 121.327 43.8584 121.105 43.7542C120.888 43.6689 120.657 43.6277 120.425 43.6329C120.001 43.6161 119.588 43.7687 119.275 44.0574C119.131 44.1985 119.017 44.3684 118.941 44.5564C118.866 44.7444 118.83 44.9462 118.836 45.1488C118.83 45.3445 118.864 45.5394 118.937 45.7208C119.011 45.9023 119.12 46.0663 119.26 46.2024C119.409 46.3413 119.584 46.449 119.774 46.5193C119.964 46.5896 120.167 46.621 120.369 46.6117C120.62 46.6243 120.869 46.5781 121.099 46.4769C121.328 46.3756 121.531 46.2219 121.692 46.0281L122.695 46.7178C122.426 47.0676 122.077 47.3468 121.678 47.5315C121.279 47.7163 120.841 47.8012 120.402 47.7789C119.514 47.7789 118.819 47.5153 118.317 46.9881C118.028 46.6962 117.812 46.3401 117.685 45.9485C117.558 45.557 117.524 45.1409 117.585 44.7337C117.647 44.3265 117.803 43.9396 118.04 43.604C118.277 43.2685 118.59 42.9937 118.952 42.8017C119.405 42.5616 119.91 42.44 120.422 42.448C120.89 42.4394 121.354 42.5425 121.775 42.7487C122.172 42.9401 122.514 43.2306 122.768 43.5925L122.746 43.6052ZM116.658 43.6052L115.604 44.1888C115.439 44.0061 115.24 43.8584 115.017 43.7542C114.801 43.6689 114.57 43.6277 114.337 43.6329C113.913 43.6156 113.5 43.7682 113.188 44.0574C113.043 44.1985 112.929 44.3684 112.854 44.5564C112.778 44.7444 112.742 44.9462 112.749 45.1488C112.742 45.3443 112.777 45.5389 112.849 45.7203C112.922 45.9017 113.031 46.0659 113.17 46.2024C113.32 46.3411 113.495 46.4488 113.685 46.519C113.876 46.5893 114.079 46.6208 114.282 46.6117C114.532 46.6243 114.782 46.5781 115.011 46.4769C115.241 46.3756 115.444 46.2219 115.604 46.0281L116.608 46.7178C116.339 47.0676 115.99 47.3468 115.591 47.5315C115.191 47.7163 114.753 47.8012 114.315 47.7789C113.426 47.7789 112.73 47.5153 112.227 46.9881C111.939 46.6958 111.723 46.3395 111.596 45.9479C111.47 45.5563 111.436 45.1403 111.498 44.7333C111.56 44.3262 111.716 43.9395 111.953 43.6041C112.19 43.2686 112.502 42.9938 112.864 42.8017C113.317 42.5616 113.823 42.44 114.335 42.448C114.803 42.4397 115.266 42.5427 115.687 42.7487C116.084 42.9401 116.426 43.2306 116.681 43.5925L116.658 43.6052ZM107.582 42.6021L106.656 44.9695H108.501L107.582 42.6021ZM106.925 40.7755H108.235L110.862 47.6501H109.509L108.977 46.2327H106.187L105.64 47.6501H104.288L106.925 40.7755ZM100.898 43.5925L99.8437 44.1761C99.6794 43.9936 99.4806 43.8459 99.259 43.7416C99.0425 43.6566 98.8114 43.6154 98.579 43.6203C98.3692 43.6114 98.1596 43.6443 97.9624 43.7172C97.7652 43.79 97.5842 43.9013 97.4298 44.0448C97.2847 44.1856 97.1707 44.3555 97.095 44.5435C97.0194 44.7315 96.9838 44.9335 96.9907 45.1362C96.9839 45.3317 97.0179 45.5265 97.0905 45.708C97.1631 45.8894 97.2727 46.0536 97.4122 46.1898C97.5609 46.3287 97.7355 46.4364 97.9259 46.5067C98.1163 46.5769 98.3187 46.6083 98.5213 46.5991C98.7716 46.6121 99.0215 46.5661 99.2511 46.4648C99.4806 46.3634 99.6836 46.2096 99.8437 46.0154L100.847 46.7052C100.578 47.0548 100.229 47.3339 99.8298 47.5186C99.4305 47.7034 98.9928 47.7883 98.5539 47.7663C97.6623 47.7663 96.9664 47.5027 96.4662 46.9755C96.1772 46.6836 95.9604 46.3274 95.8333 45.9357C95.7061 45.5439 95.6722 45.1275 95.7342 44.7201C95.7962 44.3127 95.9525 43.9257 96.1903 43.5903C96.4282 43.2549 96.741 42.9804 97.1036 42.7891C97.5555 42.5487 98.0604 42.427 98.5715 42.4354C99.0396 42.4265 99.5031 42.5296 99.924 42.736C100.315 42.9339 100.65 43.2286 100.898 43.5925ZM93.543 42.5592H94.7976V47.6425H93.543V42.5592ZM94.1778 40.4723C94.2849 40.4723 94.3909 40.4948 94.489 40.5383C94.587 40.5818 94.675 40.6454 94.7474 40.7249C94.8272 40.7993 94.8907 40.8897 94.9339 40.9901C94.9771 41.0906 94.9991 41.1991 94.9983 41.3086C94.9999 41.4164 94.9798 41.5235 94.9393 41.6233C94.8988 41.7232 94.8386 41.8138 94.7625 41.8897C94.6878 41.9657 94.5989 42.026 94.5009 42.0672C94.4029 42.1084 94.2978 42.1296 94.1916 42.1296C94.0854 42.1296 93.9803 42.1084 93.8823 42.0672C93.7843 42.026 93.6954 41.9657 93.6207 41.8897C93.5409 41.8132 93.4775 41.721 93.4343 41.6189C93.3912 41.5168 93.3692 41.4069 93.3698 41.2959C93.3701 41.1894 93.3913 41.084 93.4321 40.9858C93.4729 40.8875 93.5325 40.7983 93.6075 40.7232C93.6825 40.6481 93.7715 40.5887 93.8694 40.5482C93.9672 40.5078 94.072 40.4871 94.1778 40.4875V40.4723ZM90.4139 42.5592H90.8606C90.8606 41.8922 90.8756 41.5006 90.8932 41.3793C90.9051 41.2509 90.942 41.1261 91.0018 41.0121C91.0617 40.8981 91.1433 40.797 91.242 40.7148C91.486 40.5358 91.7836 40.4466 92.0851 40.4622C92.3894 40.4705 92.69 40.532 92.9734 40.6441V41.6143C92.8279 41.5671 92.6768 41.5399 92.5242 41.5334C92.4085 41.5229 92.2931 41.5563 92.2005 41.6269C92.1415 41.7104 92.1155 41.8131 92.1277 41.9149V42.5491H92.9307V43.6304H92.1328V47.6324H90.8656V43.6481H90.4189L90.4139 42.5592ZM88.6022 42.5592H89.8569V47.6425H88.6022V42.5592ZM89.2371 40.4723C89.3446 40.4723 89.451 40.4948 89.5494 40.5382C89.6479 40.5817 89.7364 40.6453 89.8092 40.7249C89.9614 40.88 90.0467 41.0893 90.0467 41.3073C90.0467 41.5253 89.9614 41.7345 89.8092 41.8897C89.7359 41.9663 89.6477 42.0269 89.5502 42.0678C89.4526 42.1086 89.3477 42.1288 89.2421 42.1271C89.1342 42.1275 89.0273 42.1052 88.9284 42.0617C88.8295 42.0182 88.7406 41.9545 88.6675 41.8745C88.5898 41.797 88.5286 41.7044 88.4876 41.6023C88.4466 41.5003 88.4267 41.3908 88.4291 41.2808C88.4298 41.0661 88.5149 40.8605 88.6659 40.7089C88.8169 40.5574 89.0214 40.4723 89.2346 40.4723H89.2371ZM87.5935 43.5925L86.5371 44.1761C86.3733 43.9931 86.1745 43.8453 85.9525 43.7416C85.7359 43.6566 85.5048 43.6154 85.2725 43.6203C85.0626 43.6114 84.853 43.6443 84.6558 43.7172C84.4586 43.79 84.2776 43.9013 84.1232 44.0448C83.9782 44.1856 83.8641 44.3555 83.7885 44.5435C83.7128 44.7315 83.6773 44.9335 83.6841 45.1362C83.6773 45.3317 83.7114 45.5265 83.784 45.708C83.8566 45.8894 83.9662 46.0536 84.1057 46.1898C84.2545 46.3284 84.4291 46.436 84.6195 46.5063C84.8099 46.5765 85.0122 46.6081 85.2147 46.5991C85.4651 46.6121 85.7149 46.5661 85.9445 46.4648C86.1741 46.3634 86.377 46.2096 86.5371 46.0154L87.5408 46.7052C87.2716 47.0548 86.9225 47.3339 86.5232 47.5186C86.1239 47.7034 85.6862 47.7883 85.2474 47.7663C84.3557 47.7663 83.6599 47.5027 83.1597 46.9755C82.8707 46.6836 82.6538 46.3274 82.5267 45.9357C82.3995 45.5439 82.3656 45.1275 82.4276 44.7201C82.4896 44.3127 82.6459 43.9257 82.8838 43.5903C83.1216 43.2549 83.4345 42.9804 83.797 42.7891C84.249 42.5487 84.7539 42.427 85.2649 42.4354C85.733 42.4265 86.1965 42.5296 86.6174 42.736C87.0091 42.9344 87.3448 43.229 87.5935 43.5925ZM78.7735 43.5925C78.5906 43.5876 78.4089 43.6222 78.2405 43.6942C78.0721 43.7661 77.921 43.8736 77.7974 44.0094C77.5316 44.3005 77.3909 44.6855 77.406 45.0806C77.3909 45.4804 77.5334 45.87 77.8024 46.1645C77.9258 46.301 78.0767 46.4095 78.245 46.4827C78.4133 46.5559 78.5952 46.5921 78.7785 46.589C78.9657 46.5959 79.1522 46.5623 79.3254 46.4904C79.4986 46.4185 79.6543 46.3099 79.7822 46.1721C79.9165 46.0245 80.0205 45.8517 80.0881 45.6635C80.1557 45.4753 80.1856 45.2755 80.1762 45.0756C80.1846 44.8792 80.1541 44.6832 80.0864 44.4988C80.0188 44.3145 79.9154 44.1455 79.7822 44.0018C79.6509 43.8688 79.4931 43.7652 79.3193 43.6977C79.1455 43.6302 78.9595 43.6004 78.7735 43.6102V43.5925ZM80.1059 42.5491H81.3605V47.6324H80.1059V47.0917C79.8887 47.3062 79.6333 47.4777 79.3531 47.597C79.0961 47.7034 78.8205 47.7567 78.5426 47.7537C78.2227 47.7555 77.9061 47.6889 77.6136 47.5582C77.3212 47.4276 77.0597 47.2358 76.8464 46.9957C76.3681 46.4845 76.1108 45.8029 76.1313 45.1008C76.1042 44.392 76.3527 43.7005 76.8238 43.1731C77.0337 42.9328 77.2924 42.7407 77.5825 42.6099C77.8726 42.4791 78.1872 42.4127 78.505 42.4152C78.7979 42.4127 79.0881 42.4702 79.3582 42.5844C79.634 42.7036 79.8845 42.8752 80.0959 43.0897L80.1059 42.5491ZM72.4703 43.4485H72.8868C73.1174 43.4603 73.3484 43.4365 73.5718 43.3778C73.694 43.3342 73.7994 43.2528 73.8729 43.1453C73.9485 43.0282 73.987 42.8908 73.9833 42.7512C73.9908 42.6347 73.9658 42.5183 73.9113 42.4153C73.8568 42.3122 73.7749 42.2264 73.6747 42.1676C73.4111 42.0551 73.1245 42.0083 72.8391 42.0311H72.4703V43.4485ZM71.178 40.7578H72.5581C73.1039 40.7284 73.6505 40.7985 74.1715 40.965C74.4969 41.0995 74.7706 41.3361 74.9519 41.6395C75.1501 41.9762 75.2493 42.3625 75.238 42.7537C75.2536 43.1847 75.1206 43.6078 74.8616 43.9513C74.6026 44.277 74.2462 44.51 73.8453 44.6158C73.3926 44.7045 72.9311 44.7401 72.4703 44.7219V47.6324H71.178V40.7578Z" fill="white"/>
</svg>
