<svg width="80" height="79" viewBox="0 0 80 79" fill="none" xmlns="http://www.w3.org/2000/svg">
<g id="&#240;&#159;&#166;&#134; icon &#34;medal star&#34;">
<g id="Group">
<path id="Vector" d="M66.2826 28.3315C66.2826 33.7226 64.6838 38.6675 61.9325 42.7945C57.9171 48.7433 51.5593 52.9447 44.1604 54.0229C42.8963 54.246 41.595 54.3575 40.2565 54.3575C38.918 54.3575 37.6167 54.246 36.3526 54.0229C28.9538 52.9447 22.596 48.7433 18.5805 42.7945C15.8292 38.6675 14.2305 33.7226 14.2305 28.3315C14.2305 13.9428 25.8678 2.30542 40.2565 2.30542C54.6452 2.30542 66.2826 13.9428 66.2826 28.3315Z" stroke="#0078C8" stroke-width="4.59" stroke-linecap="round" stroke-linejoin="round"/>
<path id="Vector_2" d="M74.6484 63.5406L68.5136 64.9906C67.138 65.3253 66.0598 66.3663 65.7623 67.742L64.461 73.2074C63.7546 76.1818 59.9622 77.0742 57.9917 74.7318L40.2568 54.3571L22.5217 74.769C20.5512 77.1113 16.7588 76.219 16.0524 73.2446L14.7511 67.7791C14.4165 66.4035 13.3382 65.3253 11.9998 65.0278L5.86505 63.5778C3.03936 62.9085 2.0355 59.3764 4.0804 57.3315L18.5806 42.8313C22.5961 48.7801 28.9539 52.9815 36.3529 54.0597C37.617 54.2828 38.9183 54.3943 40.2568 54.3943C41.5953 54.3943 42.8966 54.2828 44.1607 54.0597C51.5595 52.9815 57.9173 48.7801 61.9328 42.8313L76.433 57.3315C78.4779 59.3393 77.474 62.8714 74.6484 63.5406Z" stroke="#0078C8" stroke-width="4.59" stroke-linecap="round" stroke-linejoin="round"/>
<path id="Vector_3" d="M42.4132 17.103L44.6068 21.4902C44.9043 22.0851 45.6851 22.68 46.3915 22.7916L50.3698 23.4608C52.898 23.8697 53.4929 25.7288 51.6711 27.5506L48.5851 30.6365C48.0646 31.157 47.7671 32.1609 47.953 32.9045L48.8454 36.7341C49.5518 39.7457 47.953 40.9354 45.2761 39.3367L41.5581 37.1431C40.8888 36.7341 39.7734 36.7341 39.1042 37.1431L35.3862 39.3367C32.7091 40.8983 31.1104 39.7457 31.8168 36.7341L32.7091 32.9045C32.8579 32.1981 32.5976 31.157 32.077 30.6365L28.9911 27.5506C27.1693 25.7288 27.7642 23.9069 30.2924 23.4608L34.2708 22.7916C34.94 22.68 35.7208 22.0851 36.0182 21.4902L38.2119 17.103C39.2901 14.7235 41.2235 14.7235 42.4132 17.103Z" stroke="#0078C8" stroke-width="4.59" stroke-linecap="round" stroke-linejoin="round"/>
</g>
</g>
</svg>
