<svg width="38" height="38" viewBox="0 0 38 38" fill="none" xmlns="http://www.w3.org/2000/svg">
<g id="&#240;&#159;&#166;&#134; icon &#34;arrow right&#34;">
<path id="Vector" d="M18.7368 0.0576172C8.39407 0.0576172 0 8.45169 0 18.7944C0 29.1371 8.39407 37.5312 18.7368 37.5312C29.0795 37.5312 37.4735 29.1371 37.4735 18.7944C37.4735 8.45169 29.0795 0.0576172 18.7368 0.0576172ZM26.2877 19.7874L20.6667 25.4085C20.3856 25.6895 20.0296 25.8207 19.6736 25.8207C19.3176 25.8207 18.9616 25.6895 18.6806 25.4085C18.1372 24.8651 18.1372 23.9657 18.6806 23.4224L21.9033 20.1996H12.1789C11.4107 20.1996 10.7736 19.5626 10.7736 18.7944C10.7736 18.0262 11.4107 17.3891 12.1789 17.3891H21.9033L18.6806 14.1664C18.1372 13.623 18.1372 12.7237 18.6806 12.1803C19.2239 11.6369 20.1233 11.6369 20.6667 12.1803L26.2877 17.8013C26.8311 18.3447 26.8311 19.2441 26.2877 19.7874Z" fill="#FFD20D"/>
</g>
</svg>
