<svg width="14" height="15" viewBox="0 0 14 15" fill="none" xmlns="http://www.w3.org/2000/svg">
<path d="M6.67507 13.4078C2.99564 13.4078 0 10.4121 0 6.73269C0 3.05326 2.99564 0.0576172 6.67507 0.0576172C10.3545 0.0576172 13.3501 3.05326 13.3501 6.73269C13.3501 10.4121 10.3545 13.4078 6.67507 13.4078ZM6.67507 1.03446C3.52965 1.03446 0.97684 3.59378 0.97684 6.73269C0.97684 9.8716 3.52965 12.4309 6.67507 12.4309C9.8205 12.4309 12.3733 9.8716 12.3733 6.73269C12.3733 3.59378 9.8205 1.03446 6.67507 1.03446Z" fill="#213B55"/>
<path d="M13.5129 14.0589C13.3891 14.0589 13.2654 14.0133 13.1677 13.9156L11.8653 12.6132C11.6764 12.4243 11.6764 12.1117 11.8653 11.9229C12.0541 11.734 12.3667 11.734 12.5556 11.9229L13.858 13.2253C14.0469 13.4142 14.0469 13.7268 13.858 13.9156C13.7603 14.0133 13.6366 14.0589 13.5129 14.0589Z" fill="#213B55"/>
</svg>
