<svg width="25" height="25" viewBox="0 0 25 25" fill="none" xmlns="http://www.w3.org/2000/svg">
<g id="&#240;&#159;&#166;&#134; icon &#34;send 2&#34;">
<g id="Group">
<path id="Vector" d="M14.7794 24.0581C13.3101 24.0581 11.2306 23.0246 9.58692 18.0811L8.69032 15.3915L6.00067 14.4949C1.06965 12.8512 0.0361328 10.7717 0.0361328 9.30236C0.0361328 7.84547 1.06965 5.75352 6.00067 4.0974L16.5725 0.573459C19.2124 -0.310638 21.4164 -0.0491444 22.7737 1.29568C24.1309 2.6405 24.3924 4.85697 23.5083 7.49681L19.9844 18.0687C18.3283 23.0246 16.2488 24.0581 14.7794 24.0581ZM6.58592 5.87804C3.12425 7.03608 1.89149 8.40581 1.89149 9.30236C1.89149 10.1989 3.12425 11.5687 6.58592 12.7143L9.72389 13.7602C9.99784 13.8474 10.222 14.0715 10.3091 14.3455L11.3551 17.4834C12.5007 20.9451 13.8829 22.1778 14.7794 22.1778C15.676 22.1778 17.0457 20.9451 18.2038 17.4834L21.7277 6.91156C22.3627 4.99395 22.2507 3.42498 21.4413 2.6156C20.6319 1.80621 19.0629 1.7066 17.1578 2.34165L6.58592 5.87804Z" fill="#0078C8"/>
<path id="Vector_2" d="M9.66129 15.0552C9.42467 15.0552 9.18808 14.968 9.0013 14.7813C8.64019 14.4202 8.64019 13.8225 9.0013 13.4613L13.4592 8.99105C13.8203 8.62994 14.418 8.62994 14.7791 8.99105C15.1402 9.35216 15.1402 9.94986 14.7791 10.311L10.3212 14.7813C10.1469 14.968 9.89787 15.0552 9.66129 15.0552Z" fill="#0078C8"/>
</g>
</g>
</svg>
