<svg width="26" height="25" viewBox="0 0 26 25" fill="none" xmlns="http://www.w3.org/2000/svg">
<g id="twitter">
<g id="02.twitter">
<path id="background" d="M13.1503 24.9559C20.0004 24.9559 25.5535 19.4028 25.5535 12.5527C25.5535 5.70253 20.0004 0.149414 13.1503 0.149414C6.30019 0.149414 0.74707 5.70253 0.74707 12.5527C0.74707 19.4028 6.30019 24.9559 13.1503 24.9559Z" fill="#00A6DE"/>
<path id="icon" d="M19.3276 8.79887C19.0344 9.23926 18.6762 9.63269 18.2651 9.96575C18.2133 10.0089 18.1718 10.0631 18.1435 10.1244C18.1153 10.1857 18.1011 10.2524 18.1019 10.3199V10.3607C18.0971 11.2451 17.9347 12.1217 17.6221 12.9491C17.3001 13.8175 16.8216 14.6195 16.2104 15.3155C15.3891 16.2504 14.3326 16.9486 13.1504 17.3375C12.3736 17.5896 11.5615 17.7158 10.7449 17.7112C9.44926 17.7111 8.17677 17.3682 7.05652 16.7174C7.01638 16.6945 6.98477 16.6592 6.96651 16.6168C6.94825 16.5744 6.94433 16.5272 6.95533 16.4823C6.96663 16.4382 6.99237 16.3991 7.02845 16.3713C7.06454 16.3435 7.10889 16.3286 7.15444 16.3289H7.46452C8.4491 16.3314 9.41191 16.0392 10.2291 15.4901C9.74211 15.4112 9.2863 15.1994 8.91195 14.8781C8.5376 14.5567 8.25923 14.1382 8.10753 13.6688C8.09976 13.6453 8.09835 13.6201 8.10344 13.5959C8.10854 13.5716 8.11995 13.5492 8.13652 13.5308C8.15309 13.5124 8.17424 13.4987 8.19781 13.4911C8.22138 13.4835 8.24654 13.4823 8.27073 13.4876C8.41925 13.5156 8.57004 13.5298 8.72116 13.53H8.77828C8.30758 13.3138 7.90958 12.9658 7.63242 12.5282C7.35525 12.0906 7.21077 11.5821 7.21646 11.0641C7.21662 11.0399 7.22307 11.0161 7.23515 10.9951C7.24724 10.9741 7.26456 10.9565 7.28543 10.9442C7.30631 10.9319 7.33001 10.9252 7.35425 10.9247C7.37848 10.9243 7.40241 10.9301 7.42372 10.9417C7.61518 11.0486 7.82061 11.1282 8.03409 11.1783C7.61214 10.7609 7.34073 10.2151 7.26246 9.62674C7.18418 9.03836 7.30347 8.44064 7.60161 7.92738C7.61289 7.90766 7.62878 7.89098 7.64793 7.87876C7.66707 7.86655 7.6889 7.85916 7.71153 7.85723C7.73416 7.8553 7.75692 7.8589 7.77785 7.86771C7.79879 7.87651 7.81727 7.89027 7.83172 7.90779C8.42117 8.63763 9.15119 9.24165 9.97848 9.68403C10.8058 10.1264 11.7135 10.3981 12.6478 10.4831H12.6608C12.6746 10.4827 12.6881 10.4795 12.7005 10.4737C12.713 10.4679 12.7241 10.4597 12.7333 10.4495C12.7424 10.4392 12.7494 10.4272 12.7538 10.4142C12.7582 10.4012 12.7599 10.3874 12.7587 10.3738C12.7223 10.0462 12.7433 9.71486 12.8208 9.39455C12.9261 8.95915 13.1422 8.5584 13.4482 8.23125C13.7542 7.9041 14.1396 7.66167 14.567 7.52753C14.8412 7.44188 15.1267 7.39787 15.414 7.39697C16.0654 7.39622 16.6946 7.63362 17.1831 8.06446C17.2464 8.12109 17.3283 8.15245 17.4132 8.15259C17.4408 8.152 17.4682 8.14817 17.4948 8.14117C17.9539 8.02518 18.3936 7.84322 18.8004 7.60098C18.8248 7.58596 18.8532 7.57883 18.8817 7.58058C18.9103 7.58232 18.9376 7.59285 18.9599 7.61072C18.9823 7.62859 18.9985 7.65292 19.0065 7.68039C19.0145 7.70787 19.0137 7.73713 19.0044 7.76418C18.8686 8.19141 18.6266 8.57718 18.301 8.88536C18.5943 8.81544 18.8806 8.71874 19.1562 8.5965C19.1834 8.586 19.2132 8.58423 19.2415 8.59144C19.2697 8.59865 19.295 8.61448 19.3139 8.63673C19.3327 8.65899 19.3441 8.68656 19.3466 8.71561C19.3491 8.74467 19.3424 8.77377 19.3276 8.79887Z" fill="white"/>
</g>
</g>
</svg>
