<svg width="34" height="25" viewBox="0 0 34 25" fill="none" xmlns="http://www.w3.org/2000/svg">
<g id="youtube">
<path id="Vector" d="M32.4866 4.59875C32.1053 3.18184 30.9882 2.06497 29.5715 1.68343C26.9833 0.975098 16.6301 0.975098 16.6301 0.975098C16.6301 0.975098 6.27721 0.975098 3.68892 1.65643C2.29952 2.03772 1.15514 3.18209 0.773849 4.59875C0.0927734 7.18678 0.0927734 12.5541 0.0927734 12.5541C0.0927734 12.5541 0.0927734 17.9485 0.773849 20.5095C1.15539 21.9262 2.27226 23.0433 3.68917 23.4248C6.30446 24.1332 16.6304 24.1332 16.6304 24.1332C16.6304 24.1332 26.9833 24.1332 29.5715 23.4518C30.9885 23.0705 32.1053 21.9534 32.4869 20.5368C33.1679 17.9485 33.1679 12.5814 33.1679 12.5814C33.1679 12.5814 33.1952 7.18678 32.4866 4.59875Z" fill="#FF0000"/>
<path id="Vector_2" d="M13.334 17.5128L21.9432 12.5543L13.334 7.5957V17.5128Z" fill="white"/>
</g>
</svg>
